<svg width="377" height="75" viewBox="0 0 377 75" fill="none" xmlns="http://www.w3.org/2000/svg">
<path d="M27.5598 28.4295L0.457031 14.1913L27.5598 0L54.6626 14.1913L27.5598 28.4295ZM6.6016 14.1913L27.5598 25.1979L48.5181 14.1913L27.5598 3.23169L6.6016 14.1913Z" fill="#002D6D"/>
<path d="M55.042 19.3906V52.4571L27.6533 67.023L0.0742188 52.4571V19.3906L2.97979 20.9362V50.7241L27.6533 63.7913L52.1364 50.7709V20.9362L55.042 19.3906Z" fill="#D2AA1B"/>
<path d="M27.6513 73.8139L2.16797 60.372L2.2156 57.1404L27.6513 70.5823L52.8964 57.1404V60.4188L27.6513 73.8139Z" fill="#002D6D"/>
<path d="M9.31573 23.8864V50.0678L6.41016 48.4754V22.3877L9.31573 23.8864Z" fill="#002D6D"/>
<path d="M48.4681 22.5283V48.2882L45.5625 50.068V24.027L48.4681 22.5283Z" fill="#002D6D"/>
<path d="M27.5585 30.2559L13.3164 54.4701H16.5555L18.2702 51.5662H22.6524L24.2719 48.8029H19.8897L27.5585 35.7356L30.3688 40.5129L22.176 54.4232H25.415L27.1775 51.4257H36.7991L38.5615 54.4232H41.8006L27.5585 30.2559ZM28.7969 48.7092L31.9883 43.3231L35.1796 48.7092H28.7969Z" fill="#D2AA1B"/>
<path d="M74.195 20.0559H71.4589L70.9856 22.1413H69.418L72.0209 11.7885H73.633L76.2359 22.1413H74.6831L74.195 20.0559ZM73.8844 18.6657L73.2337 15.8852C73.0858 15.1951 72.9576 14.4555 72.8492 13.6667H72.8048C72.6765 14.6035 72.5484 15.3429 72.4202 15.8852L71.7843 18.6657H73.8844Z" fill="#002D6D"/>
<path d="M78.0193 22.3042C77.7531 22.3042 77.5362 22.2252 77.3686 22.0675C77.201 21.8999 77.1172 21.6781 77.1172 21.402C77.1172 21.1357 77.201 20.9238 77.3686 20.7661C77.5362 20.5985 77.7531 20.5146 78.0193 20.5146C78.2855 20.5146 78.5024 20.5985 78.6701 20.7661C78.8377 20.9238 78.9215 21.1357 78.9215 21.402C78.9215 21.6781 78.8377 21.8999 78.6701 22.0675C78.5024 22.2252 78.2855 22.3042 78.0193 22.3042Z" fill="#002D6D"/>
<path d="M84.5739 20.0559H81.8378L81.3646 22.1413H79.7969L82.3999 11.7885H84.0119L86.6149 22.1413H85.062L84.5739 20.0559ZM84.2633 18.6657L83.6126 15.8852C83.4647 15.1951 83.3365 14.4555 83.2281 13.6667H83.1837C83.0556 14.6035 82.9274 15.3429 82.7991 15.8852L82.1632 18.6657H84.2633Z" fill="#002D6D"/>
<path d="M86.6484 11.7885H88.2162L89.4584 17.4973C89.5768 18.0396 89.7149 18.7741 89.8726 19.701C89.9021 19.8291 89.9366 20.0116 89.9761 20.2482H90.0352C90.262 18.9763 90.4346 18.0594 90.553 17.4973L91.81 11.7885H93.363L90.8191 22.1413H89.1922L86.6484 11.7885Z" fill="#002D6D"/>
<path d="M99.675 20.7215V22.1413H94.75V11.7885H96.2437V20.7215H99.675Z" fill="#002D6D"/>
<path d="M103.923 22.3328C102.937 22.3328 102.163 22.0272 101.601 21.4159C101.039 20.7947 100.758 19.9419 100.758 18.8572V15.0711C100.758 13.9865 101.039 13.1385 101.601 12.5272C102.163 11.9061 102.937 11.5955 103.923 11.5955C104.909 11.5955 105.683 11.9061 106.245 12.5272C106.807 13.1385 107.088 13.9865 107.088 15.0711V18.8572C107.088 19.9419 106.807 20.7947 106.245 21.4159C105.683 22.0272 104.909 22.3328 103.923 22.3328ZM103.923 20.8686C104.455 20.8686 104.859 20.6961 105.136 20.351C105.412 20.0059 105.55 19.508 105.55 18.8572V15.0711C105.55 14.4203 105.412 13.9224 105.136 13.5773C104.859 13.2322 104.455 13.0597 103.923 13.0597C103.39 13.0597 102.986 13.2322 102.71 13.5773C102.434 13.9224 102.296 14.4203 102.296 15.0711V18.8572C102.296 19.508 102.434 20.0059 102.71 20.351C102.986 20.6961 103.39 20.8686 103.923 20.8686Z" fill="#002D6D"/>
<path d="M109.105 11.7885H110.599L112.98 17.0684C113.158 17.4628 113.473 18.222 113.927 19.346L113.971 19.3165C113.912 18.8136 113.863 18.222 113.823 17.5417C113.784 16.8614 113.764 16.2895 113.764 15.8261V11.7885H115.243V22.1413H113.749L111.442 17.0684C111.018 16.0134 110.688 15.1753 110.451 14.5541L110.407 14.5838C110.456 15.0965 110.496 15.6979 110.525 16.388C110.565 17.0684 110.584 17.6551 110.584 18.148V22.1413H109.105V11.7885Z" fill="#002D6D"/>
<path d="M117.543 11.7885H119.037V22.1413H117.543V11.7885Z" fill="#002D6D"/>
<path d="M122.858 18.7397L120.344 11.7885H121.896L123.065 15.2345C123.312 15.974 123.484 16.5163 123.583 16.8614H123.612L124.145 15.205L125.299 11.7885H126.866L124.352 18.7397V22.1413H122.858V18.7397Z" fill="#002D6D"/>
<path d="M131.586 11.7885H133.08L135.461 17.0684C135.638 17.4628 135.954 18.222 136.407 19.346L136.453 19.3165C136.393 18.8136 136.343 18.222 136.304 17.5417C136.265 16.8614 136.245 16.2895 136.245 15.8261V11.7885H137.724V22.1413H136.23L133.923 17.0684C133.499 16.0134 133.169 15.1753 132.932 14.5541L132.887 14.5838C132.937 15.0965 132.976 15.6979 133.006 16.388C133.045 17.0684 133.066 17.6551 133.066 18.148V22.1413H131.586V11.7885Z" fill="#002D6D"/>
<path d="M142.895 22.3328C141.909 22.3328 141.135 22.0272 140.573 21.4159C140.011 20.7947 139.73 19.9419 139.73 18.8572V15.0711C139.73 13.9865 140.011 13.1385 140.573 12.5272C141.135 11.9061 141.909 11.5955 142.895 11.5955C143.88 11.5955 144.655 11.9061 145.217 12.5272C145.779 13.1385 146.06 13.9865 146.06 15.0711V18.8572C146.06 19.9419 145.779 20.7947 145.217 21.4159C144.655 22.0272 143.88 22.3328 142.895 22.3328ZM142.895 20.8686C143.427 20.8686 143.832 20.6961 144.108 20.351C144.384 20.0059 144.522 19.508 144.522 18.8572V15.0711C144.522 14.4203 144.384 13.9224 144.108 13.5773C143.832 13.2322 143.427 13.0597 142.895 13.0597C142.363 13.0597 141.958 13.2322 141.683 13.5773C141.407 13.9224 141.269 14.4203 141.269 15.0711V18.8572C141.269 19.508 141.407 20.0059 141.683 20.351C141.958 20.6961 142.363 20.8686 142.895 20.8686Z" fill="#002D6D"/>
<path d="M156.179 11.7885V22.1413H154.715V18.1038C154.755 16.6544 154.794 15.5402 154.834 14.7613L154.774 14.7316C154.578 15.2838 154.242 16.1909 153.768 17.4529L152.867 19.8045H151.387L150.485 17.4529C150.012 16.1909 149.677 15.2838 149.48 14.7316L149.421 14.7613C149.48 16.2008 149.519 17.315 149.538 18.1038V22.1413H148.074V11.7885H149.598L151.343 15.9888C151.569 16.5508 151.822 17.236 152.098 18.0446H152.156C152.433 17.236 152.684 16.5508 152.911 15.9888L154.656 11.7885H156.179Z" fill="#002D6D"/>
<path d="M158.492 11.7885H159.986V22.1413H158.492V11.7885Z" fill="#002D6D"/>
<path d="M162.285 11.7885H164.858C165.864 11.7885 166.648 12.0745 167.21 12.6463C167.772 13.2083 168.053 13.9971 168.053 15.0127V18.8876C168.053 19.9129 167.772 20.7116 167.21 21.2835C166.648 21.8553 165.868 22.1413 164.873 22.1413H162.285V11.7885ZM164.873 20.7215C165.405 20.7215 165.815 20.5638 166.101 20.2482C166.396 19.9327 166.545 19.4692 166.545 18.8579V15.0422C166.545 14.4408 166.401 13.9872 166.115 13.6816C165.829 13.366 165.415 13.2083 164.873 13.2083H163.778V20.7215H164.873Z" fill="#002D6D"/>
<path d="M173.703 20.0559H170.966L170.494 22.1413H168.926L171.528 11.7885H173.141L175.744 22.1413H174.191L173.703 20.0559ZM173.392 18.6657L172.741 15.8852C172.594 15.1951 172.465 14.4555 172.357 13.6667H172.313C172.184 14.6035 172.056 15.3429 171.928 15.8852L171.292 18.6657H173.392Z" fill="#002D6D"/>
<path d="M179.691 22.3039C178.744 22.3039 177.994 22.0229 177.443 21.4609C176.9 20.8989 176.629 20.1002 176.629 19.065V14.8499C176.629 13.8146 176.896 13.0209 177.428 12.4688C177.971 11.9068 178.715 11.6257 179.661 11.6257C180.588 11.6257 181.312 11.8969 181.835 12.4392C182.357 12.9814 182.638 13.7604 182.679 14.7759H181.199C181.169 14.1844 181.027 13.7505 180.771 13.4744C180.515 13.1983 180.144 13.0604 179.661 13.0604C178.655 13.0604 178.153 13.6618 178.153 14.8646V19.065C178.153 19.6763 178.286 20.1299 178.552 20.4256C178.828 20.7214 179.212 20.8693 179.705 20.8693C180.209 20.8693 180.598 20.7263 180.874 20.4404C181.15 20.1545 181.288 19.7206 181.288 19.1389V17.8374H179.647V16.5063H182.753V19.1389C182.742 20.1446 182.461 20.9236 181.91 21.4757C181.367 22.0279 180.628 22.3039 179.691 22.3039Z" fill="#002D6D"/>
<path d="M184.527 11.7885H186.021V22.1413H184.527V11.7885Z" fill="#002D6D"/>
<path d="M194.466 11.7885C195.483 11.7885 196.266 12.0842 196.819 12.6759C197.371 13.2576 197.647 14.076 197.647 15.131C197.647 16.2155 197.371 17.0488 196.819 17.6304C196.266 18.2122 195.483 18.503 194.466 18.503H193.225V22.1413H191.73V11.7885H194.466ZM194.452 17.0832C195.014 17.0832 195.433 16.9254 195.709 16.61C195.985 16.2846 196.123 15.7916 196.123 15.131C196.123 13.8492 195.566 13.2083 194.452 13.2083H193.225V17.0832H194.452Z" fill="#002D6D"/>
<path d="M204.38 20.7363V22.1413H199.16V11.7885H204.233V13.1935H200.654V16.1958H203.952V17.5713H200.654V20.7363H204.38Z" fill="#002D6D"/>
<path d="M206.215 11.7885H208.789C209.793 11.7885 210.578 12.0745 211.14 12.6463C211.702 13.2083 211.983 13.9971 211.983 15.0127V18.8876C211.983 19.9129 211.702 20.7116 211.14 21.2835C210.578 21.8553 209.799 22.1413 208.803 22.1413H206.215V11.7885ZM208.803 20.7215C209.335 20.7215 209.745 20.5638 210.03 20.2482C210.327 19.9327 210.474 19.4692 210.474 18.8579V15.0422C210.474 14.4408 210.332 13.9872 210.046 13.6816C209.759 13.366 209.346 13.2083 208.803 13.2083H207.709V20.7215H208.803Z" fill="#002D6D"/>
<path d="M217.633 20.0559H214.897L214.423 22.1413H212.855L215.459 11.7885H217.071L219.673 22.1413H218.121L217.633 20.0559ZM217.322 18.6657L216.671 15.8852C216.523 15.1951 216.396 14.4555 216.286 13.6667H216.242C216.114 14.6035 215.986 15.3429 215.858 15.8852L215.222 18.6657H217.322Z" fill="#002D6D"/>
<path d="M223.623 22.3039C222.677 22.3039 221.928 22.0229 221.376 21.4609C220.833 20.8989 220.562 20.1002 220.562 19.065V14.8499C220.562 13.8146 220.828 13.0209 221.361 12.4688C221.903 11.9068 222.647 11.6257 223.593 11.6257C224.521 11.6257 225.246 11.8969 225.768 12.4392C226.291 12.9814 226.572 13.7604 226.611 14.7759H225.133C225.103 14.1844 224.96 13.7505 224.703 13.4744C224.447 13.1983 224.077 13.0604 223.593 13.0604C222.589 13.0604 222.085 13.6618 222.085 14.8646V19.065C222.085 19.6763 222.218 20.1299 222.485 20.4256C222.761 20.7214 223.146 20.8693 223.639 20.8693C224.141 20.8693 224.53 20.7263 224.807 20.4404C225.083 20.1545 225.221 19.7206 225.221 19.1389V17.8374H223.579V16.5063H226.685V19.1389C226.676 20.1446 226.395 20.9236 225.842 21.4757C225.299 22.0279 224.56 22.3039 223.623 22.3039Z" fill="#002D6D"/>
<path d="M231.447 22.3328C230.46 22.3328 229.686 22.0272 229.124 21.4159C228.562 20.7947 228.281 19.9419 228.281 18.8572V15.0711C228.281 13.9865 228.562 13.1385 229.124 12.5272C229.686 11.9061 230.46 11.5955 231.447 11.5955C232.432 11.5955 233.206 11.9061 233.768 12.5272C234.33 13.1385 234.611 13.9865 234.611 15.0711V18.8572C234.611 19.9419 234.33 20.7947 233.768 21.4159C233.206 22.0272 232.432 22.3328 231.447 22.3328ZM231.447 20.8686C231.979 20.8686 232.382 20.6961 232.659 20.351C232.935 20.0059 233.073 19.508 233.073 18.8572V15.0711C233.073 14.4203 232.935 13.9224 232.659 13.5773C232.382 13.2322 231.979 13.0597 231.447 13.0597C230.913 13.0597 230.51 13.2322 230.234 13.5773C229.957 13.9224 229.819 14.4203 229.819 15.0711V18.8572C229.819 19.508 229.957 20.0059 230.234 20.351C230.51 20.6961 230.913 20.8686 231.447 20.8686Z" fill="#002D6D"/>
<path d="M239.39 22.3039C238.444 22.3039 237.694 22.0229 237.141 21.4609C236.6 20.8989 236.328 20.1002 236.328 19.065V14.8499C236.328 13.8146 236.595 13.0209 237.127 12.4688C237.67 11.9068 238.414 11.6257 239.36 11.6257C240.288 11.6257 241.011 11.8969 241.534 12.4392C242.057 12.9814 242.338 13.7604 242.377 14.7759H240.898C240.869 14.1844 240.726 13.7505 240.47 13.4744C240.213 13.1983 239.844 13.0604 239.36 13.0604C238.354 13.0604 237.852 13.6618 237.852 14.8646V19.065C237.852 19.6763 237.985 20.1299 238.251 20.4256C238.527 20.7214 238.911 20.8693 239.404 20.8693C239.908 20.8693 240.297 20.7263 240.573 20.4404C240.85 20.1545 240.988 19.7206 240.988 19.1389V17.8374H239.346V16.5063H242.451V19.1389C242.441 20.1446 242.16 20.9236 241.608 21.4757C241.066 22.0279 240.327 22.3039 239.39 22.3039Z" fill="#002D6D"/>
<path d="M249.155 20.7215V22.1413H244.23V11.7885H245.725V20.7215H249.155Z" fill="#002D6D"/>
<path d="M254.375 20.0559H251.639L251.166 22.1413H249.598L252.201 11.7885H253.813L256.417 22.1413H254.863L254.375 20.0559ZM254.064 18.6657L253.414 15.8852C253.266 15.1951 253.138 14.4555 253.03 13.6667H252.985C252.857 14.6035 252.729 15.3429 252.6 15.8852L251.964 18.6657H254.064Z" fill="#002D6D"/>
<path d="M260.227 18.3847H259.295V22.1413H257.801V11.7885H260.478C261.464 11.7885 262.228 12.0745 262.771 12.6463C263.313 13.2083 263.584 14.002 263.584 15.0275C263.584 15.8261 263.421 16.4965 263.096 17.0389C262.771 17.5811 262.312 17.9608 261.72 18.1777L263.969 22.1413H262.311L260.227 18.3847ZM259.295 16.965H260.448C260.971 16.965 261.365 16.8022 261.632 16.4769C261.908 16.1515 262.046 15.6782 262.046 15.057C262.046 14.4457 261.913 13.9872 261.646 13.6816C261.381 13.366 260.985 13.2083 260.464 13.2083H259.295V16.965Z" fill="#002D6D"/>
<path d="M265.492 11.7885H266.986L269.367 17.0684C269.545 17.4628 269.86 18.222 270.314 19.346L270.359 19.3165C270.299 18.8136 270.249 18.222 270.21 17.5417C270.171 16.8614 270.152 16.2895 270.152 15.8261V11.7885H271.63V22.1413H270.136L267.829 17.0684C267.405 16.0134 267.076 15.1753 266.839 14.5541L266.795 14.5838C266.843 15.0965 266.883 15.6979 266.912 16.388C266.952 17.0684 266.972 17.6551 266.972 18.148V22.1413H265.492V11.7885Z" fill="#002D6D"/>
<path d="M273.93 11.7885H275.424V22.1413H273.93V11.7885Z" fill="#002D6D"/>
<path d="M283.292 17.6157L282.613 18.6361V22.1413H281.133V11.7885H282.613V16.2846L283.292 15.0719L285.363 11.7885H287.108L284.151 16.2994L287.538 22.1413H285.821L283.292 17.6157Z" fill="#002D6D"/>
<path d="M292.656 20.0559H289.921L289.447 22.1413H287.879L290.482 11.7885H292.094L294.698 22.1413H293.144L292.656 20.0559ZM292.346 18.6657L291.696 15.8852C291.547 15.1951 291.419 14.4555 291.311 13.6667H291.266C291.138 14.6035 291.01 15.3429 290.881 15.8852L290.246 18.6657H292.346Z" fill="#002D6D"/>
<path d="M298.403 22.3328C297.476 22.3328 296.741 22.0617 296.2 21.5194C295.657 20.9771 295.381 20.2377 295.371 19.3009H296.895C296.904 19.8235 297.038 20.2179 297.294 20.4841C297.56 20.7503 297.929 20.8834 298.403 20.8834C298.887 20.8834 299.251 20.7553 299.497 20.4989C299.754 20.2426 299.882 19.8974 299.882 19.4636C299.882 19.0495 299.729 18.6995 299.423 18.4135C299.118 18.1178 298.654 17.7874 298.033 17.4227C297.491 17.0874 297.057 16.7916 296.732 16.5353C296.407 16.2789 296.126 15.9585 295.889 15.574C295.662 15.1895 295.548 14.7359 295.548 14.2133C295.548 13.7203 295.662 13.2766 295.889 12.8822C296.126 12.4779 296.456 12.1624 296.879 11.9357C297.314 11.7088 297.816 11.5955 298.388 11.5955C299.266 11.5955 299.96 11.8567 300.473 12.3794C300.987 12.902 301.252 13.607 301.272 14.4944H299.748C299.739 14.0111 299.616 13.6464 299.379 13.3998C299.143 13.1534 298.818 13.0301 298.403 13.0301C297.989 13.0301 297.664 13.1385 297.427 13.3555C297.19 13.5724 297.072 13.8682 297.072 14.2429C297.072 14.5288 297.151 14.7802 297.309 14.9971C297.466 15.2141 297.659 15.4064 297.885 15.574C298.122 15.7317 298.452 15.9388 298.876 16.1951C299.428 16.5205 299.872 16.8114 300.208 17.0677C300.543 17.3241 300.828 17.6544 301.065 18.0586C301.302 18.453 301.42 18.9263 301.42 19.4784C301.42 20.001 301.302 20.4792 301.065 20.913C300.828 21.3469 300.478 21.692 300.015 21.9483C299.562 22.2047 299.025 22.3328 298.403 22.3328Z" fill="#002D6D"/>
<path d="M307.515 16.817C307.959 17.0044 308.309 17.3051 308.565 17.7191C308.822 18.1333 308.949 18.6214 308.949 19.1834C308.949 20.1003 308.679 20.8251 308.136 21.3575C307.594 21.88 306.869 22.1413 305.962 22.1413H303.004V11.7885H305.815C306.653 11.7885 307.318 12.0448 307.811 12.5576C308.313 13.0604 308.565 13.7408 308.565 14.5985C308.565 15.0915 308.472 15.5352 308.284 15.9296C308.097 16.3141 307.841 16.61 307.515 16.817ZM304.498 13.1935V16.1663H305.681C306.588 16.1663 307.042 15.6585 307.042 14.6429C307.042 14.15 306.929 13.7851 306.702 13.5485C306.475 13.3119 306.119 13.1935 305.637 13.1935H304.498ZM305.769 20.7363C306.874 20.7363 307.427 20.2186 307.427 19.1834C307.427 18.6608 307.273 18.2615 306.968 17.9854C306.662 17.7094 306.243 17.5713 305.711 17.5713H304.498V20.7363H305.769Z" fill="#002D6D"/>
<path d="M310.59 11.7885H312.084V22.1413H310.59V11.7885Z" fill="#002D6D"/>
<path d="M315.905 18.7397L313.391 11.7885H314.944L316.112 15.2345C316.358 15.974 316.531 16.5163 316.63 16.8614H316.66L317.192 15.205L318.345 11.7885H319.913L317.399 18.7397V22.1413H315.905V18.7397Z" fill="#002D6D"/>
<path d="M72.7732 37.4324H71.8415V41.1889H70.3477V30.8362H73.0247C74.0106 30.8362 74.7748 31.1221 75.3171 31.6939C75.8593 32.2559 76.1305 33.0496 76.1305 34.0751C76.1305 34.8738 75.9678 35.5442 75.6424 36.0865C75.3171 36.6288 74.8586 37.0084 74.2669 37.2253L76.515 41.1889H74.8586L72.7732 37.4324ZM71.8415 36.0126H72.995C73.5177 36.0126 73.9121 35.8499 74.1783 35.5245C74.4543 35.1992 74.5923 34.7258 74.5923 34.1046C74.5923 33.4933 74.4592 33.0349 74.193 32.7293C73.9268 32.4137 73.5324 32.2559 73.0098 32.2559H71.8415V36.0126Z" fill="#002D6D"/>
<path d="M78.0391 30.8362H79.5329V41.1889H78.0391V30.8362Z" fill="#002D6D"/>
<path d="M80.8945 30.8362H82.4624L83.7046 36.545C83.823 37.0873 83.961 37.8218 84.1187 38.7487C84.1483 38.8768 84.1829 39.0593 84.2223 39.2958H84.2814C84.5082 38.0239 84.6807 37.107 84.7991 36.545L86.0562 30.8362H87.6091L85.0654 41.1889H83.4385L80.8945 30.8362Z" fill="#002D6D"/>
<path d="M91.8642 41.3803C90.8781 41.3803 90.1042 41.0747 89.5422 40.4634C88.9802 39.8422 88.6992 38.9894 88.6992 37.9047V34.1187C88.6992 33.034 88.9802 32.186 89.5422 31.5747C90.1042 30.9537 90.8781 30.6431 91.8642 30.6431C92.8502 30.6431 93.6241 30.9537 94.1861 31.5747C94.7481 32.186 95.0291 33.034 95.0291 34.1187V37.9047C95.0291 38.9894 94.7481 39.8422 94.1861 40.4634C93.6241 41.0747 92.8502 41.3803 91.8642 41.3803ZM91.8642 39.9162C92.3966 39.9162 92.8009 39.7437 93.077 39.3985C93.353 39.0534 93.491 38.5556 93.491 37.9047V34.1187C93.491 33.4678 93.353 32.97 93.077 32.6249C92.8009 32.2797 92.3966 32.1072 91.8642 32.1072C91.3317 32.1072 90.9274 32.2797 90.6514 32.6249C90.3753 32.97 90.2373 33.4678 90.2373 34.1187V37.9047C90.2373 38.5556 90.3753 39.0534 90.6514 39.3985C90.9274 39.7437 91.3317 39.9162 91.8642 39.9162Z" fill="#002D6D"/>
<path d="M95.418 41.5143C95.9998 41.5143 96.4287 41.3664 96.7048 41.0706C96.9907 40.7749 97.1337 40.2621 97.1337 39.5325V30.8362H98.6274V39.5325C98.6274 40.6269 98.3513 41.4601 97.7992 42.032C97.2569 42.6137 96.4632 42.9045 95.418 42.9045V41.5143Z" fill="#002D6D"/>
<path d="M105.82 39.7692V41.1889H100.895V30.8362H102.388V39.7692H105.82Z" fill="#002D6D"/>
<path d="M111.043 39.1036H108.307L107.833 41.1889H106.266L108.869 30.8362H110.481L113.084 41.1889H111.531L111.043 39.1036ZM110.732 37.7133L110.081 34.933C109.933 34.2427 109.805 33.5032 109.697 32.7144H109.653C109.524 33.6512 109.396 34.3906 109.268 34.933L108.632 37.7133H110.732Z" fill="#002D6D"/>
<path d="M114.469 30.8362H115.962L118.344 36.1161C118.521 36.5105 118.837 37.2696 119.291 38.3937L119.335 38.3642C119.276 37.8613 119.227 37.2696 119.187 36.5894C119.148 35.909 119.128 35.3371 119.128 34.8738V30.8362H120.606V41.1889H119.114L116.805 36.1161C116.381 35.0611 116.051 34.223 115.815 33.6018L115.77 33.6314C115.819 34.1442 115.859 34.7456 115.889 35.4357C115.928 36.1161 115.948 36.7027 115.948 37.1957V41.1889H114.469V30.8362Z" fill="#002D6D"/>
<path d="M127.952 32.2559H125.793V41.1889H124.27V32.2559H122.125V30.8362H127.952V32.2559Z" fill="#002D6D"/>
<path d="M129.383 30.8362H130.877V41.1889H129.383V30.8362Z" fill="#002D6D"/>
<path d="M135.597 37.4324H134.666V41.1889H133.172V30.8362H135.848C136.835 30.8362 137.598 31.1221 138.141 31.6939C138.684 32.2559 138.954 33.0496 138.954 34.0751C138.954 34.8738 138.792 35.5442 138.466 36.0865C138.141 36.6288 137.683 37.0084 137.091 37.2253L139.339 41.1889H137.683L135.597 37.4324ZM134.666 36.0126H135.819C136.342 36.0126 136.736 35.8499 137.002 35.5245C137.278 35.1992 137.416 34.7258 137.416 34.1046C137.416 33.4933 137.283 33.0349 137.017 32.7293C136.75 32.4137 136.356 32.2559 135.834 32.2559H134.666V36.0126Z" fill="#002D6D"/>
<path d="M140.863 30.8362H142.357V41.1889H140.863V30.8362Z" fill="#002D6D"/>
<path d="M147.032 41.3803C146.106 41.3803 145.371 41.1093 144.829 40.5669C144.287 40.0246 144.011 39.2852 144 38.3484H145.524C145.533 38.871 145.667 39.2654 145.923 39.5316C146.189 39.7978 146.56 39.9309 147.032 39.9309C147.515 39.9309 147.88 39.8028 148.127 39.5464C148.383 39.2901 148.512 38.945 148.512 38.5112C148.512 38.097 148.358 37.747 148.052 37.461C147.748 37.1653 147.283 36.835 146.663 36.4702C146.12 36.135 145.687 35.8391 145.361 35.5828C145.036 35.3264 144.755 35.006 144.518 34.6215C144.292 34.237 144.177 33.7834 144.177 33.2608C144.177 32.7678 144.292 32.3241 144.518 31.9297C144.755 31.5254 145.085 31.21 145.51 30.9832C145.943 30.7564 146.445 30.6431 147.018 30.6431C147.895 30.6431 148.59 30.9044 149.102 31.4269C149.615 31.9495 149.882 32.6545 149.901 33.5419H148.379C148.368 33.0587 148.245 32.6939 148.008 32.4474C147.771 32.2009 147.446 32.0776 147.032 32.0776C146.618 32.0776 146.293 32.186 146.056 32.4031C145.819 32.62 145.701 32.9157 145.701 33.2904C145.701 33.5763 145.78 33.8277 145.938 34.0446C146.095 34.2616 146.288 34.4539 146.514 34.6215C146.751 34.7793 147.082 34.9863 147.506 35.2426C148.058 35.5681 148.501 35.8589 148.837 36.1152C149.171 36.3716 149.458 36.7019 149.694 37.1062C149.931 37.5006 150.05 37.9738 150.05 38.5259C150.05 39.0485 149.931 39.5268 149.694 39.9606C149.458 40.3944 149.108 40.7395 148.644 40.9958C148.19 41.2522 147.654 41.3803 147.032 41.3803Z" fill="#002D6D"/>
<path d="M157.548 30.8362V41.1889H156.054V36.6486H153.126V41.1889H151.633V30.8362H153.126V35.2434H156.054V30.8362H157.548Z" fill="#002D6D"/>
<path d="M162.34 30.8362H163.907L165.149 36.545C165.267 37.0873 165.405 37.8218 165.564 38.7487C165.593 38.8768 165.628 39.0593 165.667 39.2958H165.727C165.953 38.0239 166.126 37.107 166.243 36.545L167.501 30.8362H169.054L166.51 41.1889H164.883L162.34 30.8362Z" fill="#002D6D"/>
<path d="M173.867 39.1036H171.13L170.658 41.1889H169.09L171.692 30.8362H173.305L175.908 41.1889H174.355L173.867 39.1036ZM173.557 37.7133L172.905 34.933C172.758 34.2427 172.629 33.5032 172.521 32.7144H172.477C172.348 33.6512 172.221 34.3906 172.092 34.933L171.457 37.7133H173.557Z" fill="#002D6D"/>
<path d="M182.229 37.7874L179.715 30.8362H181.268L182.436 34.2821C182.683 35.0217 182.855 35.5639 182.954 35.909H182.984L183.516 34.2526L184.67 30.8362H186.237L183.723 37.7874V41.1889H182.229V37.7874Z" fill="#002D6D"/>
<path d="M190.957 39.1036H188.221L187.748 41.1889H186.18L188.783 30.8362H190.395L192.998 41.1889H191.445L190.957 39.1036ZM190.646 37.7133L189.995 34.933C189.848 34.2427 189.72 33.5032 189.611 32.7144H189.567C189.438 33.6512 189.311 34.3906 189.182 34.933L188.546 37.7133H190.646Z" fill="#002D6D"/>
<path d="M194.383 30.8362H195.877L198.258 36.1161C198.435 36.5105 198.751 37.2696 199.204 38.3937L199.248 38.3642C199.19 37.8613 199.14 37.2696 199.101 36.5894C199.061 35.909 199.041 35.3371 199.041 34.8738V30.8362H200.521V41.1889H199.027L196.72 36.1161C196.296 35.0611 195.965 34.223 195.729 33.6018L195.684 33.6314C195.734 34.1442 195.773 34.7456 195.803 35.4357C195.842 36.1161 195.861 36.7027 195.861 37.1957V41.1889H194.383V30.8362Z" fill="#002D6D"/>
<path d="M205.585 41.3516C204.639 41.3516 203.889 41.0705 203.338 40.5086C202.795 39.9466 202.523 39.1479 202.523 38.1126V33.8975C202.523 32.8623 202.79 32.0686 203.322 31.5164C203.865 30.9544 204.609 30.6733 205.556 30.6733C206.483 30.6733 207.207 30.9445 207.729 31.4868C208.252 32.0291 208.533 32.808 208.573 33.8236H207.094C207.064 33.232 206.921 32.7981 206.665 32.522C206.409 32.246 206.039 32.108 205.556 32.108C204.55 32.108 204.047 32.7094 204.047 33.9123V38.1126C204.047 38.7239 204.181 39.1775 204.446 39.4732C204.722 39.7691 205.107 39.9169 205.6 39.9169C206.103 39.9169 206.492 39.7739 206.769 39.488C207.045 39.2021 207.183 38.7682 207.183 38.1866V36.885H205.541V35.5539H208.647V38.1866C208.637 39.1923 208.356 39.9712 207.804 40.5233C207.262 41.0755 206.522 41.3516 205.585 41.3516Z" fill="#002D6D"/>
<path d="M210.422 30.8362H211.916V41.1889H210.422V30.8362Z" fill="#002D6D"/>
<path d="M225.734 30.8362V41.1889H224.269V37.1514C224.309 35.702 224.349 34.5878 224.388 33.8089L224.329 33.7793C224.131 34.3314 223.797 35.2386 223.323 36.5006L222.421 38.8521H220.942L220.04 36.5006C219.567 35.2386 219.231 34.3314 219.034 33.7793L218.975 33.8089C219.034 35.2484 219.074 36.3626 219.093 37.1514V41.1889H217.629V30.8362H219.153L220.898 35.0364C221.124 35.5984 221.375 36.2837 221.652 37.0923H221.711C221.987 36.2837 222.238 35.5984 222.466 35.0364L224.211 30.8362H225.734Z" fill="#002D6D"/>
<path d="M233.268 39.7839V41.1889H228.047V30.8362H233.119V32.2412H229.541V35.2434H232.839V36.6189H229.541V39.7839H233.268Z" fill="#002D6D"/>
<path d="M240.144 32.2559H237.984V41.1889H236.46V32.2559H234.316V30.8362H240.144V32.2559Z" fill="#002D6D"/>
<path d="M244.517 41.3803C243.531 41.3803 242.758 41.0747 242.196 40.4634C241.633 39.8422 241.352 38.9894 241.352 37.9047V34.1187C241.352 33.034 241.633 32.186 242.196 31.5747C242.758 30.9537 243.531 30.6431 244.517 30.6431C245.503 30.6431 246.277 30.9537 246.838 31.5747C247.402 32.186 247.683 33.034 247.683 34.1187V37.9047C247.683 38.9894 247.402 39.8422 246.838 40.4634C246.277 41.0747 245.503 41.3803 244.517 41.3803ZM244.517 39.9162C245.049 39.9162 245.454 39.7437 245.73 39.3985C246.006 39.0534 246.144 38.5556 246.144 37.9047V34.1187C246.144 33.4678 246.006 32.97 245.73 32.6249C245.454 32.2797 245.049 32.1072 244.517 32.1072C243.985 32.1072 243.58 32.2797 243.304 32.6249C243.028 32.97 242.89 33.4678 242.89 34.1187V37.9047C242.89 38.5556 243.028 39.0534 243.304 39.3985C243.58 39.7437 243.985 39.9162 244.517 39.9162Z" fill="#002D6D"/>
<path d="M249.699 30.8362H252.273C253.279 30.8362 254.062 31.1221 254.624 31.6939C255.186 32.2559 255.467 33.0448 255.467 34.0603V37.9352C255.467 38.9606 255.186 39.7593 254.624 40.3312C254.062 40.903 253.284 41.1889 252.287 41.1889H249.699V30.8362ZM252.287 39.7692C252.819 39.7692 253.229 39.6114 253.515 39.2958C253.811 38.9803 253.959 38.5169 253.959 37.9056V34.0899C253.959 33.4884 253.816 33.0349 253.53 32.7293C253.244 32.4137 252.83 32.2559 252.287 32.2559H251.193V39.7692H252.287Z" fill="#002D6D"/>
<path d="M257.477 30.8362H258.971V41.1889H257.477V30.8362Z" fill="#002D6D"/>
<path d="M263.425 36.6633L262.745 37.6838V41.1889H261.266V30.8362H262.745V35.3323L263.425 34.1195L265.495 30.8362H267.241L264.283 35.347L267.67 41.1889H265.954L263.425 36.6633Z" fill="#002D6D"/>
<path d="M272.785 39.1036H270.049L269.576 41.1889H268.008L270.611 30.8362H272.223L274.827 41.1889H273.273L272.785 39.1036ZM272.474 37.7133L271.824 34.933C271.676 34.2427 271.548 33.5032 271.44 32.7144H271.395C271.267 33.6512 271.139 34.3906 271.01 34.933L270.374 37.7133H272.474Z" fill="#002D6D"/>
<path d="M281.136 39.7692V41.1889H276.211V30.8362H277.705V39.7692H281.136Z" fill="#002D6D"/>
<path d="M286.359 39.1036H283.623L283.15 41.1889H281.582L284.184 30.8362H285.796L288.4 41.1889H286.848L286.359 39.1036ZM286.049 37.7133L285.398 34.933C285.25 34.2427 285.121 33.5032 285.013 32.7144H284.969C284.84 33.6512 284.712 34.3906 284.584 34.933L283.949 37.7133H286.049Z" fill="#002D6D"/>
<path d="M292.21 37.4324H291.278V41.1889H289.785V30.8362H292.461C293.447 30.8362 294.211 31.1221 294.754 31.6939C295.296 32.2559 295.567 33.0496 295.567 34.0751C295.567 34.8738 295.405 35.5442 295.079 36.0865C294.754 36.6288 294.296 37.0084 293.704 37.2253L295.952 41.1889H294.296L292.21 37.4324ZM291.278 36.0126H292.432C292.954 36.0126 293.349 35.8499 293.615 35.5245C293.891 35.1992 294.029 34.7258 294.029 34.1046C294.029 33.4933 293.896 33.0349 293.63 32.7293C293.364 32.4137 292.97 32.2559 292.447 32.2559H291.278V36.0126Z" fill="#002D6D"/>
<path d="M300.238 41.3516C299.291 41.3516 298.541 41.0705 297.989 40.5086C297.447 39.9466 297.176 39.1479 297.176 38.1126V33.8975C297.176 32.8623 297.442 32.0686 297.975 31.5164C298.517 30.9544 299.261 30.6733 300.208 30.6733C301.134 30.6733 301.859 30.9445 302.382 31.4868C302.904 32.0291 303.185 32.808 303.225 33.8236H301.746C301.716 33.232 301.573 32.7981 301.317 32.522C301.06 32.246 300.691 32.108 300.208 32.108C299.202 32.108 298.7 32.7094 298.7 33.9123V38.1126C298.7 38.7239 298.833 39.1775 299.098 39.4732C299.375 39.7691 299.759 39.9169 300.252 39.9169C300.756 39.9169 301.145 39.7739 301.421 39.488C301.697 39.2021 301.834 38.7682 301.834 38.1866V36.885H300.194V35.5539H303.298V38.1866C303.289 39.1923 303.008 39.9712 302.456 40.5233C301.914 41.0755 301.175 41.3516 300.238 41.3516Z" fill="#002D6D"/>
<path d="M309.035 39.1036H306.299L305.826 41.1889H304.258L306.861 30.8362H308.473L311.076 41.1889H309.523L309.035 39.1036ZM308.724 37.7133L308.073 34.933C307.926 34.2427 307.798 33.5032 307.689 32.7144H307.645C307.516 33.6512 307.389 34.3906 307.26 34.933L306.624 37.7133H308.724Z" fill="#002D6D"/>
<path d="M318.744 41.3803C317.758 41.3803 316.984 41.0747 316.422 40.4634C315.859 39.8422 315.578 38.9894 315.578 37.9047V34.1187C315.578 33.034 315.859 32.186 316.422 31.5747C316.984 30.9537 317.758 30.6431 318.744 30.6431C319.729 30.6431 320.503 30.9537 321.065 31.5747C321.628 32.186 321.909 33.034 321.909 34.1187V37.9047C321.909 38.9894 321.628 39.8422 321.065 40.4634C320.503 41.0747 319.729 41.3803 318.744 41.3803ZM318.744 39.9162C319.276 39.9162 319.681 39.7437 319.957 39.3985C320.233 39.0534 320.371 38.5556 320.371 37.9047V34.1187C320.371 33.4678 320.233 32.97 319.957 32.6249C319.681 32.2797 319.276 32.1072 318.744 32.1072C318.211 32.1072 317.807 32.2797 317.531 32.6249C317.254 32.97 317.116 33.4678 317.116 34.1187V37.9047C317.116 38.5556 317.254 39.0534 317.531 39.3985C317.807 39.7437 318.211 39.9162 318.744 39.9162Z" fill="#002D6D"/>
<path d="M323.968 30.8362H324.856L324.545 34.3118H323.125L323.968 30.8362Z" fill="#002D6D"/>
<path d="M328.769 37.4324H327.838V41.1889H326.344V30.8362H329.02C330.007 30.8362 330.771 31.1221 331.313 31.6939C331.856 32.2559 332.126 33.0496 332.126 34.0751C332.126 34.8738 331.964 35.5442 331.638 36.0865C331.313 36.6288 330.854 37.0084 330.263 37.2253L332.51 41.1889H330.854L328.769 37.4324ZM327.838 36.0126H328.991C329.514 36.0126 329.908 35.8499 330.175 35.5245C330.45 35.1992 330.588 34.7258 330.588 34.1046C330.588 33.4933 330.456 33.0349 330.189 32.7293C329.922 32.4137 329.528 32.2559 329.006 32.2559H327.838V36.0126Z" fill="#002D6D"/>
<path d="M336.796 41.3516C335.85 41.3516 335.1 41.0705 334.549 40.5086C334.006 39.9466 333.734 39.1479 333.734 38.1126V33.8975C333.734 32.8623 334.001 32.0686 334.533 31.5164C335.076 30.9544 335.82 30.6733 336.767 30.6733C337.694 30.6733 338.418 30.9445 338.94 31.4868C339.463 32.0291 339.744 32.808 339.784 33.8236H338.305C338.275 33.232 338.132 32.7981 337.876 32.522C337.62 32.246 337.25 32.108 336.767 32.108C335.761 32.108 335.258 32.7094 335.258 33.9123V38.1126C335.258 38.7239 335.392 39.1775 335.657 39.4732C335.933 39.7691 336.318 39.9169 336.811 39.9169C337.314 39.9169 337.703 39.7739 337.98 39.488C338.256 39.2021 338.394 38.7682 338.394 38.1866V36.885H336.752V35.5539H339.858V38.1866C339.847 39.1923 339.566 39.9712 339.015 40.5233C338.472 41.0755 337.733 41.3516 336.796 41.3516Z" fill="#002D6D"/>
<path d="M345.594 39.1036H342.858L342.384 41.1889H340.816L343.42 30.8362H345.032L347.635 41.1889H346.082L345.594 39.1036ZM345.283 37.7133L344.633 34.933C344.484 34.2427 344.357 33.5032 344.249 32.7144H344.203C344.076 33.6512 343.947 34.3906 343.819 34.933L343.183 37.7133H345.283Z" fill="#002D6D"/>
<path d="M353.515 32.2559H351.355V41.1889H349.832V32.2559H347.688V30.8362H353.515V32.2559Z" fill="#002D6D"/>
<path d="M354.949 30.8362H356.443V41.1889H354.949V30.8362Z" fill="#002D6D"/>
<path d="M361.118 41.3803C360.191 41.3803 359.456 41.1093 358.913 40.5669C358.372 40.0246 358.095 39.2852 358.086 38.3484H359.609C359.619 38.871 359.751 39.2654 360.009 39.5316C360.274 39.7978 360.644 39.9309 361.118 39.9309C361.6 39.9309 361.966 39.8028 362.212 39.5464C362.468 39.2901 362.597 38.945 362.597 38.5112C362.597 38.097 362.443 37.747 362.138 37.461C361.832 37.1653 361.369 36.835 360.748 36.4702C360.205 36.135 359.772 35.8391 359.447 35.5828C359.12 35.3264 358.84 35.006 358.604 34.6215C358.376 34.237 358.263 33.7834 358.263 33.2608C358.263 32.7678 358.376 32.3241 358.604 31.9297C358.84 31.5254 359.17 31.21 359.594 30.9832C360.028 30.7564 360.531 30.6431 361.103 30.6431C361.98 30.6431 362.675 30.9044 363.188 31.4269C363.7 31.9495 363.967 32.6545 363.987 33.5419H362.463C362.454 33.0587 362.33 32.6939 362.093 32.4474C361.857 32.2009 361.531 32.0776 361.118 32.0776C360.704 32.0776 360.378 32.186 360.142 32.4031C359.905 32.62 359.786 32.9157 359.786 33.2904C359.786 33.5763 359.866 33.8277 360.023 34.0446C360.181 34.2616 360.373 34.4539 360.6 34.6215C360.836 34.7793 361.167 34.9863 361.591 35.2426C362.143 35.5681 362.587 35.8589 362.922 36.1152C363.257 36.3716 363.543 36.7019 363.78 37.1062C364.017 37.5006 364.135 37.9738 364.135 38.5259C364.135 39.0485 364.017 39.5268 363.78 39.9606C363.543 40.3944 363.193 40.7395 362.73 40.9958C362.276 41.2522 361.738 41.3803 361.118 41.3803Z" fill="#002D6D"/>
<path d="M371.634 30.8362V41.1889H370.14V36.6486H367.213V41.1889H365.719V30.8362H367.213V35.2434H370.14V30.8362H371.634Z" fill="#002D6D"/>
<path d="M78.4524 49.8838V60.2365H76.9882V56.199C77.0277 54.7496 77.0672 53.6355 77.1066 52.8565L77.0474 52.8269C76.8503 53.379 76.515 54.2862 76.0417 55.5482L75.1396 57.8997H73.6606L72.7584 55.5482C72.2852 54.2862 71.9499 53.379 71.7527 52.8269L71.6936 52.8565C71.7527 54.296 71.7922 55.4102 71.8118 56.199V60.2365H70.3477V49.8838H71.871L73.6162 54.084C73.843 54.646 74.0944 55.3313 74.3705 56.1399H74.4297C74.7058 55.3313 74.9572 54.646 75.184 54.084L76.9291 49.8838H78.4524Z" fill="#002D6D"/>
<path d="M80.7656 49.8838H82.2593V60.2365H80.7656V49.8838Z" fill="#002D6D"/>
<path d="M89.4836 58.8168V60.2365H84.5586V49.8838H86.0523V58.8168H89.4836Z" fill="#002D6D"/>
<path d="M95.7842 58.8168V60.2365H90.8594V49.8838H92.3531V58.8168H95.7842Z" fill="#002D6D"/>
<path d="M97.1641 49.8838H98.6578V60.2365H97.1641V49.8838Z" fill="#002D6D"/>
<path d="M102.475 56.835L99.9609 49.8838H101.514L102.682 53.3297C102.929 54.0693 103.101 54.6115 103.2 54.9566H103.229L103.762 53.3002L104.915 49.8838H106.483L103.969 56.835V60.2365H102.475V56.835Z" fill="#002D6D"/>
<path d="M106.941 55.7988H110.565V57.0707H106.941V55.7988Z" fill="#002D6D"/>
<path d="M116.71 51.3035H114.551V60.2365H113.027V51.3035H110.883V49.8838H116.71V51.3035Z" fill="#002D6D"/>
<path d="M121.512 58.1512H118.775L118.302 60.2365H116.734L119.337 49.8838H120.95L123.553 60.2365H122L121.512 58.1512ZM121.201 56.7609L120.55 53.9805C120.403 53.2903 120.274 52.5508 120.166 51.762H120.122C119.993 52.6988 119.866 53.4382 119.737 53.9805L119.101 56.7609H121.201Z" fill="#002D6D"/>
<path d="M124.938 49.8838H127.51C128.516 49.8838 129.301 50.1697 129.863 50.7415C130.424 51.3035 130.705 52.0924 130.705 53.108V56.9828C130.705 58.0082 130.424 58.8069 129.863 59.3788C129.301 59.9506 128.521 60.2365 127.526 60.2365H124.938V49.8838ZM127.526 58.8168C128.058 58.8168 128.467 58.659 128.753 58.3434C129.048 58.028 129.197 57.5645 129.197 56.9532V53.1375C129.197 52.536 129.054 52.0825 128.767 51.7769C128.482 51.4613 128.067 51.3035 127.526 51.3035H126.432V58.8168H127.526Z" fill="#002D6D"/>
<path d="M138.759 56.9523C138.759 58.0567 138.474 58.9096 137.901 59.511L138.73 60.5019L137.827 61.2858L136.91 60.1914C136.535 60.3491 136.091 60.4279 135.58 60.4279C134.593 60.4279 133.819 60.1223 133.257 59.511C132.695 58.8898 132.414 58.037 132.414 56.9523V53.1663C132.414 52.0816 132.695 51.2337 133.257 50.6223C133.819 50.0013 134.593 49.6907 135.58 49.6907C136.575 49.6907 137.353 50.0013 137.916 50.6223C138.478 51.2337 138.759 52.0816 138.759 53.1663V56.9523ZM136.895 58.3131C137.102 57.9679 137.206 57.5144 137.206 56.9523V53.1663C137.206 52.5154 137.068 52.0176 136.791 51.6725C136.515 51.3273 136.112 51.1548 135.58 51.1548C135.046 51.1548 134.643 51.3273 134.366 51.6725C134.1 52.0176 133.968 52.5154 133.968 53.1663V56.9523C133.968 57.6032 134.1 58.101 134.366 58.4461C134.643 58.7913 135.046 58.9638 135.58 58.9638C135.707 58.9638 135.806 58.9589 135.875 58.949L135.18 58.1208L136.068 57.3221L136.895 58.3131Z" fill="#002D6D"/>
<path d="M140.777 49.8838H142.271V60.2365H140.777V49.8838Z" fill="#002D6D"/>
<path d="M150.614 56.9523C150.614 58.0567 150.328 58.9096 149.756 59.511L150.585 60.5019L149.683 61.2858L148.765 60.1914C148.391 60.3491 147.947 60.4279 147.434 60.4279C146.448 60.4279 145.674 60.1223 145.112 59.511C144.55 58.8898 144.27 58.037 144.27 56.9523V53.1663C144.27 52.0816 144.55 51.2337 145.112 50.6223C145.674 50.0013 146.448 49.6907 147.434 49.6907C148.43 49.6907 149.209 50.0013 149.771 50.6223C150.333 51.2337 150.614 52.0816 150.614 53.1663V56.9523ZM148.75 58.3131C148.958 57.9679 149.061 57.5144 149.061 56.9523V53.1663C149.061 52.5154 148.923 52.0176 148.647 51.6725C148.371 51.3273 147.967 51.1548 147.434 51.1548C146.902 51.1548 146.498 51.3273 146.222 51.6725C145.955 52.0176 145.822 52.5154 145.822 53.1663V56.9523C145.822 57.6032 145.955 58.101 146.222 58.4461C146.498 58.7913 146.902 58.9638 147.434 58.9638C147.562 58.9638 147.661 58.9589 147.73 58.949L147.035 58.1208L147.922 57.3221L148.75 58.3131Z" fill="#002D6D"/>
<path d="M155.501 60.4279C154.516 60.4279 153.741 60.1223 153.179 59.511C152.617 58.8898 152.336 58.037 152.336 56.9523V53.1663C152.336 52.0816 152.617 51.2337 153.179 50.6223C153.741 50.0013 154.516 49.6907 155.501 49.6907C156.487 49.6907 157.261 50.0013 157.823 50.6223C158.385 51.2337 158.666 52.0816 158.666 53.1663V56.9523C158.666 58.037 158.385 58.8898 157.823 59.511C157.261 60.1223 156.487 60.4279 155.501 60.4279ZM155.501 58.9638C156.034 58.9638 156.438 58.7913 156.715 58.4461C156.99 58.101 157.128 57.6032 157.128 56.9523V53.1663C157.128 52.5154 156.99 52.0176 156.715 51.6725C156.438 51.3273 156.034 51.1548 155.501 51.1548C154.969 51.1548 154.565 51.3273 154.288 51.6725C154.012 52.0176 153.874 52.5154 153.874 53.1663V56.9523C153.874 57.6032 154.012 58.101 154.288 58.4461C154.565 58.7913 154.969 58.9638 155.501 58.9638Z" fill="#002D6D"/>
<path d="M165.566 51.3035H163.406V60.2365H161.882V51.3035H159.738V49.8838H165.566V51.3035Z" fill="#002D6D"/>
<path d="M170.484 49.8838H171.978V60.2365H170.484V49.8838Z" fill="#002D6D"/>
<path d="M174.273 49.8838H175.767L178.148 55.1637C178.326 55.5581 178.641 56.3172 179.095 57.4413L179.139 57.4118C179.081 56.9089 179.031 56.3172 178.991 55.637C178.952 54.9566 178.933 54.3847 178.933 53.9214V49.8838H180.412V60.2365H178.917L176.61 55.1637C176.187 54.1087 175.856 53.2706 175.62 52.6494L175.575 52.679C175.625 53.1918 175.664 53.7932 175.694 54.4833C175.733 55.1637 175.753 55.7503 175.753 56.2433V60.2365H174.273V49.8838Z" fill="#002D6D"/>
<path d="M185.095 60.4279C184.168 60.4279 183.434 60.1569 182.891 59.6145C182.349 59.0722 182.073 58.3328 182.062 57.396H183.586C183.596 57.9186 183.729 58.3131 183.985 58.5792C184.252 58.8454 184.622 58.9785 185.095 58.9785C185.578 58.9785 185.942 58.8504 186.19 58.594C186.446 58.3377 186.574 57.9926 186.574 57.5588C186.574 57.1446 186.421 56.7946 186.115 56.5087C185.81 56.2129 185.346 55.8826 184.726 55.5178C184.183 55.1826 183.749 54.8867 183.423 54.6304C183.098 54.374 182.817 54.0536 182.58 53.6691C182.354 53.2846 182.24 52.831 182.24 52.3084C182.24 51.8154 182.354 51.3717 182.58 50.9773C182.817 50.5731 183.147 50.2576 183.572 50.0308C184.005 49.804 184.508 49.6907 185.08 49.6907C185.958 49.6907 186.653 49.952 187.165 50.4745C187.678 50.9971 187.945 51.7021 187.964 52.5895H186.441C186.43 52.1063 186.308 51.7415 186.071 51.495C185.834 51.2485 185.509 51.1252 185.095 51.1252C184.68 51.1252 184.355 51.2337 184.118 51.4507C183.882 51.6676 183.764 51.9633 183.764 52.3381C183.764 52.6239 183.842 52.8753 184.001 53.0922C184.158 53.3092 184.351 53.5015 184.577 53.6691C184.814 53.8269 185.145 54.0339 185.568 54.2902C186.121 54.6157 186.564 54.9065 186.899 55.1628C187.234 55.4192 187.521 55.7495 187.757 56.1538C187.993 56.5482 188.113 57.0214 188.113 57.5735C188.113 58.0962 187.993 58.5744 187.757 59.0082C187.521 59.442 187.171 59.7871 186.707 60.0434C186.253 60.2998 185.716 60.4279 185.095 60.4279Z" fill="#002D6D"/>
<path d="M194.87 51.3035H192.711V60.2365H191.188V51.3035H189.043V49.8838H194.87V51.3035Z" fill="#002D6D"/>
<path d="M196.301 49.8838H197.794V60.2365H196.301V49.8838Z" fill="#002D6D"/>
<path d="M205.136 51.3035H202.976V60.2365H201.454V51.3035H199.309V49.8838H205.136V51.3035Z" fill="#002D6D"/>
<path d="M209.493 60.3845C208.567 60.3845 207.826 60.0985 207.275 59.5266C206.732 58.945 206.461 58.1315 206.461 57.0864V49.8838H207.985V57.0864C207.985 57.6977 208.118 58.161 208.384 58.4765C208.65 58.7822 209.02 58.9351 209.493 58.9351C209.976 58.9351 210.351 58.7822 210.617 58.4765C210.884 58.161 211.017 57.6977 211.017 57.0864V49.8838H212.525V57.0864C212.525 58.1315 212.254 58.945 211.712 59.5266C211.169 60.0985 210.43 60.3845 209.493 60.3845Z" fill="#002D6D"/>
<path d="M219.718 51.3035H217.558V60.2365H216.036V51.3035H213.891V49.8838H219.718V51.3035Z" fill="#002D6D"/>
<path d="M221.152 49.8838H222.646V60.2365H221.152V49.8838Z" fill="#002D6D"/>
</svg>
