<?xml version="1.0" standalone="no"?>
<!DOCTYPE svg PUBLIC "-//W3C//DTD SVG 20010904//EN"
 "http://www.w3.org/TR/2001/REC-SVG-20010904/DTD/svg10.dtd">
<svg version="1.0" xmlns="http://www.w3.org/2000/svg"
 width="248.000000pt" height="250.000000pt" viewBox="0 0 248.000000 250.000000"
 preserveAspectRatio="xMidYMid meet">

<g transform="translate(0.000000,250.000000) scale(0.100000,-0.100000)"
fill="#000000" stroke="none">
<path d="M1175 2483 c-146 -11 -333 -60 -477 -127 -162 -74 -369 -252 -474
-406 -88 -128 -167 -305 -189 -422 -4 -22 -13 -38 -21 -38 -12 0 -14 -39 -14
-219 0 -121 4 -222 9 -225 4 -3 14 -33 20 -67 30 -151 116 -340 216 -474 69
-92 191 -209 290 -280 77 -55 230 -135 258 -135 7 0 17 -4 22 -8 6 -5 35 -16
65 -26 305 -92 621 -65 910 78 321 159 567 468 650 817 13 52 27 98 31 104 5
5 9 73 9 152 0 268 -73 514 -217 727 -98 145 -270 304 -416 385 -87 48 -207
100 -257 111 -129 30 -172 39 -225 44 -101 11 -138 13 -190 9z m325 -103 c459
-113 788 -455 886 -922 23 -109 23 -322 0 -433 -49 -235 -149 -425 -310 -593
-395 -411 -1016 -476 -1491 -157 -249 168 -420 424 -492 737 -24 106 -24 356
1 461 113 488 468 832 951 922 112 21 341 13 455 -15z"/>
<path d="M1134 2359 c-322 -25 -644 -216 -827 -490 -131 -198 -189 -393 -189
-634 1 -246 73 -465 215 -658 170 -229 406 -380 687 -437 146 -30 359 -24 502
13 397 105 699 409 810 817 20 74 23 108 23 270 0 173 -2 192 -28 285 -153
542 -632 877 -1193 834z m121 -29 c3 -5 15 -10 26 -10 12 0 19 -7 19 -18 0
-10 5 -23 11 -29 7 -7 7 -17 1 -29 -6 -11 -13 -27 -16 -36 -3 -10 -14 -18 -25
-18 -11 0 -23 -5 -27 -11 -4 -8 -9 -8 -17 0 -6 6 -21 11 -34 11 -17 0 -23 6
-23 23 0 13 -5 28 -12 35 -9 9 -9 15 0 24 7 7 12 20 12 30 0 11 7 18 19 18 11
0 23 5 26 10 3 6 12 10 20 10 8 0 17 -4 20 -10z m-222 -57 c2 -21 6 -44 8 -52
2 -7 -1 -15 -8 -18 -12 -4 -36 84 -27 99 11 18 22 6 27 -29z m-67 9 c-15 -3
-17 -9 -11 -35 11 -50 11 -60 0 -63 -5 -2 -17 19 -26 46 l-15 50 25 8 c14 5
31 7 36 3 6 -3 2 -7 -9 -9z m541 -42 c8 -38 7 -50 -2 -50 -13 0 -34 67 -27 88
8 25 20 10 29 -38z m77 34 c9 -3 13 -10 10 -15 -12 -20 8 -30 27 -13 10 9 19
14 19 10 0 -4 -9 -15 -21 -25 -17 -14 -19 -21 -10 -44 9 -24 8 -27 -9 -27 -13
0 -20 7 -20 20 0 21 -15 27 -25 10 -3 -5 -12 -10 -18 -10 -7 0 0 10 15 21 23
17 26 24 18 45 -15 37 -14 39 14 28z m-714 -29 c0 -8 -2 -15 -4 -15 -2 0 -6 7
-10 15 -3 8 -1 15 4 15 6 0 10 -7 10 -15z m595 -5 c3 -5 1 -10 -4 -10 -6 0
-11 5 -11 10 0 6 2 10 4 10 3 0 8 -4 11 -10z m-635 -40 c15 -44 36 -52 50 -17
6 14 9 16 9 6 1 -22 -33 -51 -52 -43 -16 6 -48 74 -40 87 10 16 20 5 33 -33z
m904 1 c4 -5 0 -15 -7 -23 -8 -7 -12 -18 -10 -24 2 -6 -3 -17 -12 -24 -12 -10
-21 -10 -44 0 l-29 12 21 48 c22 47 22 48 49 34 15 -8 29 -18 32 -23z m-294
19 c0 -5 -5 -10 -11 -10 -5 0 -7 5 -4 10 3 6 8 10 11 10 2 0 4 -4 4 -10z
m-670 -10 c0 -5 -7 -10 -15 -10 -19 0 -19 -2 6 -45 14 -23 18 -40 12 -46 -6
-6 -18 6 -32 31 -23 41 -36 49 -44 28 -4 -9 -6 -9 -6 -1 -1 6 14 20 32 31 37
23 47 26 47 12z m1030 -36 c0 -3 -11 -15 -25 -26 -37 -29 -31 -77 8 -62 18 7
39 52 31 67 -4 7 2 4 12 -6 17 -16 18 -20 4 -45 -19 -33 -55 -40 -81 -16 -24
22 -24 49 1 74 19 19 50 27 50 14z m-1126 -32 c4 -10 16 -29 27 -41 18 -19 19
-25 8 -32 -10 -6 -21 4 -40 34 -15 23 -25 45 -22 50 8 13 22 7 27 -11z m683 7
c289 -39 551 -221 685 -475 57 -109 97 -242 105 -351 5 -72 4 -83 -10 -83 -9
0 -18 -4 -21 -9 -3 -5 2 -8 12 -7 49 4 5 -233 -72 -389 -25 -49 -66 -116 -91
-147 l-45 -58 -151 0 c-97 0 -148 4 -144 10 3 6 16 10 28 10 29 0 54 30 53 61
-1 19 5 25 27 27 15 2 25 7 22 12 -3 5 3 14 14 19 10 6 22 18 25 28 5 13 -1
11 -21 -8 -15 -14 -53 -40 -85 -58 -55 -31 -56 -31 -50 -9 3 13 29 47 58 75
44 44 59 53 88 53 20 0 36 -5 36 -11 0 -14 18 -2 31 22 9 17 7 20 -13 17 -13
-1 -67 6 -121 16 l-99 19 -21 -23 c-12 -13 -16 -20 -10 -16 7 4 28 4 48 0 40
-7 43 -20 17 -79 l-18 -40 -7 33 c-5 26 -11 32 -32 32 -14 0 -30 9 -37 20 -7
11 -20 20 -28 20 -13 0 -13 -2 0 -9 21 -14 16 -61 -22 -201 l-33 -125 -227 0
-226 -1 -25 101 c-14 55 -32 121 -40 147 -11 34 -12 48 -3 51 6 2 8 7 4 11 -3
4 -19 1 -35 -7 -15 -8 -34 -12 -40 -10 -12 4 -18 -9 -14 -31 1 -5 -4 -13 -11
-17 -10 -7 -9 -9 5 -9 9 0 17 -7 17 -15 0 -47 -59 21 -80 93 -8 26 -8 26 -9 3
-1 -20 -3 -22 -16 -11 -9 7 -14 18 -12 23 5 15 106 37 114 25 3 -6 8 -6 13 1
3 7 29 20 56 31 27 10 43 19 36 20 -7 0 -27 -6 -45 -14 -20 -8 -53 -12 -83 -9
-27 3 -79 -2 -117 -11 -38 -9 -81 -16 -97 -16 -22 0 -28 -4 -24 -15 4 -11 21
-15 59 -15 49 0 57 -3 97 -43 25 -24 50 -58 56 -75 11 -31 10 -33 -16 -43 -21
-8 -29 -7 -39 7 -7 10 -13 13 -13 8 0 -16 22 -34 41 -34 9 0 27 -9 40 -20 l24
-19 -147 -1 -146 0 -42 50 c-70 84 -136 204 -171 312 -32 98 -34 110 -33 253
0 176 17 253 89 400 172 352 555 557 942 504z m-727 -29 c0 -5 -7 -10 -15 -10
-21 0 -19 -7 10 -42 14 -16 25 -34 25 -39 0 -19 -18 -8 -45 26 -22 30 -30 34
-43 24 -10 -6 -1 3 18 20 35 32 50 38 50 21z m1288 -33 c15 -17 5 -47 -14 -47
-8 0 -14 -10 -14 -26 0 -16 -5 -24 -12 -21 -7 2 -13 16 -13 30 1 29 -5 33 -22
16 -6 -6 -16 -8 -23 -4 -7 4 0 20 22 44 34 39 50 40 76 8z m-1378 -36 c0 -5
-10 -11 -22 -14 -31 -9 -15 -20 29 -21 29 -1 38 -5 41 -21 3 -16 1 -17 -8 -8
-7 7 -25 10 -40 7 -17 -4 -31 0 -40 11 -13 15 -12 20 9 36 26 21 31 23 31 10z
m1440 -21 c54 -29 40 -100 -20 -100 -17 0 -30 4 -30 10 0 5 6 7 13 4 19 -7 61
41 53 61 -9 25 -38 14 -63 -24 l-23 -34 0 31 c0 21 7 36 22 46 27 19 24 19 48
6z m-1505 -40 c3 -5 1 -10 -4 -10 -6 0 -11 5 -11 10 0 6 2 10 4 10 3 0 8 -4
11 -10z m85 -34 c-7 -7 -14 -6 -21 1 -9 9 -7 12 9 10 14 -1 18 -5 12 -11z
m-30 -25 c0 -3 -27 -4 -60 -3 -72 4 -80 20 -12 24 43 3 72 -5 72 -21z m1527
23 c-3 -3 -12 -4 -19 -1 -8 3 -5 6 6 6 11 1 17 -2 13 -5z m42 -58 c0 -6 -3 -6
-6 2 -7 19 -24 15 -54 -14 -17 -16 -32 -23 -40 -18 -9 5 -1 17 27 40 36 30 40
32 56 17 10 -9 18 -21 17 -27z m-1609 -18 c0 -13 -5 -9 -31 19 l-24 26 27 -19
c15 -10 28 -22 28 -26z m-57 -2 c48 -43 31 -58 -20 -19 -21 15 -40 28 -42 29
-5 4 9 24 17 24 4 -1 24 -16 45 -34z m1643 -53 c-4 -4 -11 -1 -16 7 -16 25
-11 35 7 17 9 -9 13 -20 9 -24z m74 6 c0 -7 -8 -18 -17 -25 -10 -7 -13 -14 -6
-14 8 0 7 -12 -4 -40 -11 -27 -20 -37 -26 -31 -7 7 -7 19 1 36 16 35 15 37 -7
25 -25 -13 -31 -13 -31 3 0 6 17 22 38 33 44 26 52 28 52 13z m-1769 -59 c35
-19 20 -29 -33 -23 -60 7 -62 8 -53 22 8 14 60 14 86 1z m1804 0 c3 -5 2 -10
-4 -10 -5 0 -13 5 -16 10 -3 6 -2 10 4 10 5 0 13 -4 16 -10z m-1865 -61 c60
-31 53 -54 -9 -26 -29 13 -46 27 -44 35 6 16 5 16 53 -9z m1886 6 c18 -14 18
-14 -10 -15 -16 0 -38 -7 -48 -17 -10 -9 -20 -14 -23 -11 -10 10 8 40 29 48
29 12 30 12 52 -5z m8 -76 c-19 -22 -57 -25 -72 -6 -8 9 -3 12 21 13 18 1 37
10 47 22 12 15 16 17 18 5 2 -8 -4 -23 -14 -34z m-1934 20 c0 -6 8 -8 19 -4
22 7 49 -29 31 -40 -5 -3 -10 -1 -10 5 0 6 -8 10 -17 8 -10 -2 -23 3 -30 12
-9 12 -14 12 -24 3 -9 -9 -3 -16 30 -29 22 -9 41 -22 41 -30 0 -10 -9 -10 -47
4 -27 9 -49 17 -51 18 -2 1 4 16 13 33 15 30 45 43 45 20z m1980 -54 c0 -8
-11 -26 -25 -40 -22 -21 -55 -34 -55 -22 0 8 65 76 73 76 4 1 7 -6 7 -14z
m-2010 -50 c9 -11 17 -12 32 -4 11 6 22 8 25 5 9 -8 -17 -36 -33 -36 -8 0 -14
-4 -14 -10 0 -5 7 -10 15 -10 8 0 15 -7 15 -16 0 -11 -5 -14 -17 -9 -10 4 -33
9 -50 12 -20 3 -33 12 -33 20 0 11 7 13 31 8 24 -6 30 -4 27 6 -3 8 -15 15
-27 17 -18 3 -20 6 -10 18 15 18 23 18 39 -1z m2033 -28 c3 -9 -11 -19 -43
-29 -63 -20 -75 0 -16 23 52 21 53 22 59 6z m17 -72 c0 -8 -10 -20 -22 -26
-13 -7 -26 -16 -29 -22 -4 -5 -15 -7 -24 -3 -15 5 -11 11 21 35 45 34 54 37
54 16z m-2022 -17 c-3 -7 -19 -16 -37 -20 -18 -5 -29 -13 -25 -19 3 -6 -3 -5
-15 3 -29 18 -26 25 17 36 52 14 64 14 60 0z m-8 -69 c0 -14 -16 -11 -29 5
-10 12 -8 13 8 9 12 -3 21 -9 21 -14z m2040 6 c0 -8 -6 -15 -12 -15 -7 0 -30
-3 -50 -6 -31 -5 -38 -3 -38 9 0 11 12 17 43 20 23 2 45 4 50 5 4 1 7 -5 7
-13z m-2084 -35 c22 0 34 -5 34 -14 0 -9 -10 -13 -32 -11 -18 2 -41 3 -50 4
-10 1 -18 8 -18 17 0 11 5 14 16 10 9 -3 31 -6 50 -6z m2094 -24 c0 -10 -14
-16 -42 -18 -37 -3 -43 -6 -42 -26 0 -14 -3 -19 -9 -13 -5 5 -7 19 -5 32 2 19
11 25 38 30 56 10 60 10 60 -5z m-2077 -35 c9 -1 17 -8 17 -17 0 -11 -5 -14
-16 -10 -9 3 -31 6 -50 6 -22 0 -34 5 -34 14 0 9 10 13 33 11 17 -2 40 -3 50
-4z m2077 -31 c0 -5 -2 -10 -4 -10 -3 0 -8 5 -11 10 -3 6 -1 10 4 10 6 0 11
-4 11 -10z m-85 -40 c3 -5 1 -10 -4 -10 -6 0 -11 5 -11 10 0 6 2 10 4 10 3 0
8 -4 11 -10z m-1975 -17 c0 -15 -60 -53 -83 -53 -25 0 34 50 81 69 1 1 2 -7 2
-16z m2060 5 c-1 -20 -74 -68 -89 -59 -9 6 -2 15 23 30 20 13 36 27 36 32 0 5
7 9 15 9 8 0 15 -6 15 -12z m-2051 -74 c2 -2 2 -7 -1 -10 -4 -3 -19 2 -35 11
l-28 16 30 -6 c16 -4 32 -9 34 -11z m2007 -24 c25 0 34 -4 34 -16 0 -13 -7
-15 -31 -10 -17 3 -40 6 -50 6 -11 0 -19 7 -19 16 0 11 5 14 16 10 9 -3 31 -6
50 -6z m-2020 -14 c13 -10 23 -11 31 -4 22 18 15 -16 -10 -53 -12 -19 -33 -35
-45 -37 -24 -4 -52 13 -52 30 0 6 7 5 15 -2 20 -17 77 6 73 29 -4 22 -44 26
-74 7 -30 -20 -31 -10 -2 21 25 27 37 28 64 9z m2007 -47 c20 -5 37 -16 37
-24 0 -9 -7 -11 -22 -7 -17 4 -20 2 -15 -12 4 -10 3 -15 -3 -11 -5 3 -23 -1
-39 -10 -38 -19 -40 -19 -34 3 2 10 17 23 31 29 25 10 26 11 5 12 -13 1 -23 7
-23 16 0 18 12 19 63 4z m-1974 -72 c8 -11 5 -14 -19 -14 -16 0 -39 -8 -50
-18 -24 -22 -26 -9 -4 23 17 24 56 29 73 9z m1996 -7 c3 -5 1 -10 -4 -10 -6 0
-11 5 -11 10 0 6 2 10 4 10 3 0 8 -4 11 -10z m-77 -92 c-29 -3 -55 -4 -57 -2
-10 9 19 27 43 27 31 0 33 8 6 27 -11 8 -20 19 -20 24 0 6 18 -8 41 -29 l40
-40 -53 -7z m-1907 34 c-14 -27 -45 -36 -71 -22 -29 15 -25 27 8 23 15 -3 36
2 47 11 25 18 30 14 16 -12z m29 -32 c0 -5 -4 -10 -9 -10 -6 0 -13 5 -16 10
-3 6 1 10 9 10 9 0 16 -4 16 -10z m1373 -16 c8 -8 -3 -34 -14 -34 -5 0 -9 9
-9 20 0 19 11 26 23 14z m-1353 -35 c0 -15 -83 -50 -94 -39 -5 5 -8 11 -5 12
2 2 22 12 44 24 40 21 55 21 55 3z m1837 -6 c49 -22 48 -22 37 -32 -10 -11
-94 24 -94 39 0 14 14 12 57 -7z m53 7 c0 -5 -2 -10 -4 -10 -3 0 -8 5 -11 10
-3 6 -1 10 4 10 6 0 11 -4 11 -10z m-1274 -165 l38 -155 52 0 c29 0 76 5 104
12 37 9 56 9 69 1 12 -7 23 -8 35 -1 12 6 39 6 80 -1 34 -6 81 -11 104 -11 47
0 37 -21 89 185 28 110 31 115 57 115 12 0 12 -8 -2 -52 -9 -29 -21 -56 -26
-59 -5 -4 -6 -14 -3 -22 3 -8 0 -20 -6 -26 -6 -6 -8 -11 -4 -11 4 0 3 -10 -4
-21 -6 -12 -13 -31 -15 -43 -15 -82 -17 -88 -26 -75 -7 11 -11 11 -14 2 -7
-16 -480 -18 -489 -3 -4 6 -11 8 -16 5 -5 -4 -9 3 -9 14 0 11 -4 22 -8 25 -4
2 -9 19 -10 37 -2 18 -8 36 -14 40 -6 4 -7 12 -4 18 4 6 3 11 -3 11 -5 0 -10
8 -10 18 -2 46 -6 62 -14 62 -5 0 -7 6 -4 14 3 7 0 19 -6 25 -6 6 -7 11 -3 11
5 0 2 8 -5 17 -8 10 -9 14 -2 10 6 -4 14 -3 18 3 3 5 8 10 10 10 1 0 20 -70
41 -155z m-592 120 c3 -8 2 -15 -2 -15 -4 0 -16 -13 -25 -30 -10 -16 -25 -30
-33 -30 -18 0 -17 3 16 52 28 42 35 45 44 23z m1756 -14 c0 -5 -9 -11 -19 -14
-14 -3 -18 -1 -14 9 6 15 33 19 33 5z m80 -11 c0 -5 -4 -10 -10 -10 -5 0 -10
5 -10 10 0 6 5 10 10 10 6 0 10 -4 10 -10z m-30 -14 c0 -2 3 -13 6 -23 6 -14
4 -16 -6 -6 -10 9 -19 9 -42 -3 -23 -12 -33 -13 -44 -3 -18 15 -18 30 0 23 8
-3 23 -1 33 5 18 10 53 15 53 7z m-1777 -23 c-7 -2 -21 -2 -30 0 -10 3 -4 5
12 5 17 0 24 -2 18 -5z m497 0 c0 -5 4 -25 9 -45 10 -43 0 -50 -17 -13 -15 32
-15 65 -2 65 6 0 10 -3 10 -7z m791 -26 c-13 -13 -26 -3 -16 12 3 6 11 8 17 5
6 -4 6 -10 -1 -17z m449 -54 c0 -18 -5 -17 -50 13 -39 26 -46 35 -34 47 8 8
83 -46 84 -60z m30 47 c0 -5 -4 -10 -10 -10 -5 0 -10 5 -10 10 0 6 5 10 10 10
6 0 10 -4 10 -10z m-1747 -53 c-11 -22 -25 -37 -37 -37 -17 0 -17 2 -4 23 8
12 21 33 27 46 22 40 35 9 14 -32z m1660 -27 c19 0 27 -4 25 -12 -3 -7 -10
-13 -16 -12 -7 1 -22 2 -34 3 -30 2 -62 27 -53 40 4 8 13 6 28 -4 12 -8 34
-15 50 -15z m-1603 10 c0 -5 -12 -10 -27 -9 -25 0 -26 1 -8 9 27 12 35 12 35
0z m435 -16 c9 -15 12 -23 6 -20 -11 7 -35 46 -28 46 3 0 12 -12 22 -26z
m-407 -21 c-3 -5 -13 -27 -23 -50 -18 -43 -29 -52 -39 -34 -7 10 23 71 39 83
13 10 28 10 23 1z m1482 -3 c0 -5 -2 -10 -4 -10 -3 0 -8 5 -11 10 -3 6 -1 10
4 10 6 0 11 -4 11 -10z m25 -68 c8 -23 2 -23 -46 -5 -54 20 -52 20 -45 31 8
13 84 -9 91 -26z m55 34 c0 -3 -4 -8 -10 -11 -5 -3 -10 -1 -10 4 0 6 5 11 10
11 6 0 10 -2 10 -4z m-1502 -82 c-28 -30 -58 -45 -58 -28 0 4 15 23 33 44 22
25 36 34 44 28 9 -7 4 -19 -19 -44z m62 -20 c0 -21 2 -23 20 -12 28 18 37 2
13 -25 -11 -12 -25 -30 -30 -40 -9 -17 -11 -17 -36 3 -32 25 -34 45 -7 60 11
6 20 20 20 31 0 11 5 17 10 14 6 -3 10 -17 10 -31z m1265 1 c22 -30 30 -34 43
-24 10 6 2 -3 -17 -19 -19 -17 -39 -28 -45 -24 -7 4 -4 8 7 10 24 5 22 14 -13
47 -27 26 -31 45 -11 45 5 0 21 -16 36 -35z m-635 -11 c0 -8 -5 -12 -10 -9 -6
4 -8 11 -5 16 9 14 15 11 15 -7z m-32 -14 c16 -26 29 -25 53 3 l20 22 -6 -22
c-4 -13 -2 -23 4 -23 5 0 22 -5 38 -11 l28 -11 -35 -13 c-22 -8 -34 -18 -34
-29 2 -20 -12 -21 -20 -1 -3 8 -12 15 -19 15 -8 0 -20 -7 -27 -15 -7 -8 -17
-15 -22 -15 -6 0 -6 6 1 14 13 16 9 20 -34 30 -29 7 -29 8 -10 22 11 8 26 12
33 9 11 -4 13 1 8 20 -8 30 4 33 22 5z m608 -82 c-11 -10 -28 -17 -36 -17 -8
0 -4 4 8 10 26 10 25 35 -2 33 -9 -1 -16 2 -16 7 0 5 5 9 12 9 8 0 5 7 -5 18
-17 16 -19 16 -31 0 -7 -10 -16 -15 -19 -11 -4 3 8 16 25 28 l32 22 27 -41 26
-41 -21 -17z m-1121 33 c1 -23 -5 -47 -12 -53 -18 -15 -20 -10 -15 50 5 64 27
66 27 3z m1015 9 c0 -5 -5 -10 -11 -10 -5 0 -7 5 -4 10 3 6 8 10 11 10 2 0 4
-4 4 -10z m-970 -20 c-24 -15 -36 -11 -14 4 10 8 21 12 24 10 2 -3 -2 -9 -10
-14z m45 0 c3 -5 -1 -10 -10 -10 -9 0 -13 5 -10 10 3 6 8 10 10 10 2 0 7 -4
10 -10z m965 -57 c2 -2 -2 -8 -9 -13 -9 -5 -31 3 -63 22 -63 39 -45 57 21 21
25 -14 48 -28 51 -30z m-924 39 c16 -10 -28 -103 -44 -93 -9 5 -7 17 7 47 11
21 17 42 14 46 -5 10 9 10 23 0z m794 -6 c0 -3 -4 -8 -10 -11 -5 -3 -10 -1
-10 4 0 6 5 11 10 11 6 0 10 -2 10 -4z m-739 -30 c0 -6 2 -24 3 -39 2 -27 -9
-56 -17 -47 -3 3 -7 28 -9 57 -4 40 -2 50 9 46 7 -3 13 -10 14 -17z m769 -58
c0 -20 -85 10 -102 36 -17 25 -5 24 47 -1 30 -15 55 -31 55 -35z m-710 44 c0
-4 -9 -13 -20 -20 -23 -14 -26 -8 -7 13 13 16 27 19 27 7z m588 -49 c2 -16 -3
-35 -10 -41 -11 -9 -13 -5 -10 22 2 21 -2 39 -12 49 -23 23 -19 32 7 15 13 -9
23 -28 25 -45z m-536 23 c-2 -9 1 -32 7 -51 7 -27 6 -35 -4 -35 -7 0 -16 11
-19 25 -8 31 -20 32 -40 3 -9 -12 -16 -18 -16 -12 0 6 11 21 25 34 14 13 25
32 25 43 0 11 5 17 13 14 6 -2 11 -12 9 -21z m469 10 c-15 -18 -4 -63 18 -76
14 -8 13 -9 -6 -10 -36 0 -58 61 -31 88 17 17 33 15 19 -2z m-385 -23 c-3 -10
-7 -33 -8 -50 -2 -23 -7 -33 -18 -33 -14 0 -15 6 -6 50 6 31 15 50 24 50 8 0
11 -7 8 -17z m274 2 c-7 -9 -15 -13 -17 -11 -7 7 7 26 19 26 6 0 6 -6 -2 -15z
m55 -17 c4 -18 9 -41 11 -50 3 -11 0 -18 -9 -18 -9 0 -18 18 -24 50 -8 39 -7
50 3 50 7 0 15 -15 19 -32z m-278 2 c-1 -11 -7 -20 -14 -20 -14 0 -18 22 -6
33 12 13 22 7 20 -13z m55 3 c10 -9 18 -24 18 -34 0 -20 -25 -49 -43 -49 -8 0
-7 4 1 12 15 15 15 61 0 76 -18 18 3 14 24 -5z m123 -3 c15 -16 17 -26 9 -48
-5 -15 -18 -28 -29 -30 -15 -2 -16 -1 -7 6 8 5 12 23 10 43 -2 26 -8 34 -23
34 -16 0 -21 -8 -23 -37 -2 -22 1 -38 7 -38 6 0 11 -5 11 -10 0 -18 -38 8 -45
30 -9 29 20 70 49 70 12 0 31 -9 41 -20z m-180 -72 c6 -4 2 -8 -7 -8 -10 0
-18 7 -18 17 0 9 3 12 8 7 4 -5 12 -12 17 -16z"/>
<path d="M1685 2199 c-4 -6 -5 -13 -2 -16 7 -7 27 6 27 18 0 12 -17 12 -25 -2z"/>
<path d="M1665 2159 c-10 -15 1 -23 20 -15 9 3 13 10 10 16 -8 13 -22 13 -30
-1z"/>
<path d="M1178 2083 c6 -2 18 -2 25 0 6 3 1 5 -13 5 -14 0 -19 -2 -12 -5z"/>
<path d="M865 1919 c-11 -16 27 -39 58 -35 15 3 25 0 21 -5 -3 -5 -10 -7 -15
-4 -5 4 -9 1 -9 -5 0 -15 32 -9 37 6 4 12 -55 54 -75 54 -6 0 -14 -5 -17 -11z"/>
<path d="M1148 1923 c7 -3 16 -2 19 1 4 3 -2 6 -13 5 -11 0 -14 -3 -6 -6z"/>
<path d="M836 1874 c-4 -9 -5 -18 -4 -18 2 -1 20 -14 40 -29 35 -26 38 -26 47
-8 11 19 5 34 -10 25 -4 -2 -5 -12 -2 -21 5 -13 1 -12 -17 5 -13 12 -21 25
-17 28 7 8 -11 34 -23 34 -4 0 -11 -7 -14 -16z"/>
<path d="M880 1850 c0 -5 5 -10 10 -10 6 0 10 5 10 10 0 6 -4 10 -10 10 -5 0
-10 -4 -10 -10z"/>
<path d="M1060 1846 c0 -2 8 -10 18 -17 15 -13 16 -12 3 4 -13 16 -21 21 -21
13z"/>
<path d="M806 1823 c-4 -9 -2 -21 4 -27 8 -8 9 -6 5 7 -4 10 -2 17 4 17 6 0
11 -5 11 -11 0 -6 7 -8 16 -5 11 4 15 2 11 -8 -4 -11 -1 -13 10 -9 13 5 11 10
-13 30 -35 27 -40 28 -48 6z"/>
<path d="M977 1621 c-4 -17 -3 -21 5 -13 5 5 8 16 6 23 -3 8 -7 3 -11 -10z"/>
<path d="M911 1603 c-10 -26 -10 -27 4 -9 8 11 15 23 15 28 0 15 -7 8 -19 -19z"/>
<path d="M660 1601 c0 -6 4 -13 10 -16 6 -3 7 1 4 9 -7 18 -14 21 -14 7z"/>
<path d="M653 1557 c23 -19 22 -30 -3 -17 -11 6 -20 7 -20 3 0 -4 18 -18 39
-29 31 -17 41 -19 45 -9 3 8 -3 19 -12 27 -16 12 -16 11 -2 -6 14 -18 13 -19
-3 -13 -10 4 -20 7 -23 7 -2 0 -1 6 2 14 3 9 -4 19 -18 26 -21 10 -21 10 -5
-3z"/>
<path d="M1011 1553 c-1 -6 -4 -20 -7 -30 -5 -17 -5 -17 6 0 6 10 9 23 6 30
-3 9 -5 9 -5 0z"/>
<path d="M602 1503 c-9 -16 -4 -22 29 -41 39 -23 59 -22 59 1 0 16 -38 39 -51
32 -5 -4 -8 -1 -7 6 5 20 -20 21 -30 2z"/>
<path d="M570 1451 c-8 -16 -7 -22 9 -30 10 -6 21 -8 25 -6 3 3 4 2 1 -2 -3
-3 5 -13 17 -21 19 -14 22 -13 34 3 11 15 10 20 -9 35 -48 37 -65 42 -77 21z"/>
<path d="M339 1202 c7 -13 26 -28 42 -34 16 -5 29 -14 29 -19 0 -5 19 -9 43
-9 43 -1 58 -8 90 -46 l18 -22 -47 9 c-26 5 -59 16 -72 25 -13 9 -21 11 -18 5
7 -10 25 -19 164 -81 30 -14 62 -35 72 -47 23 -29 32 -29 29 0 -2 12 1 28 5
36 7 11 5 13 -6 9 -16 -7 -46 21 -41 37 4 13 -14 41 -22 33 -3 -3 -7 -15 -8
-26 -2 -29 -18 -18 -100 67 -38 39 -74 71 -80 71 -7 0 -1 -9 13 -20 21 -16 22
-21 11 -29 -18 -12 -75 10 -110 42 l-24 22 12 -23z"/>
<path d="M1967 1213 c-2 -5 -4 -21 -5 -38 -2 -22 -17 -45 -57 -85 l-55 -55 0
33 c0 20 -4 31 -10 27 -6 -4 -8 -11 -5 -16 4 -5 1 -9 -5 -9 -6 0 -8 -4 -5 -10
3 -6 -4 -10 -17 -11 -13 0 -17 -3 -10 -6 20 -8 14 -23 -10 -23 -19 0 -20 -2
-8 -10 10 -6 11 -10 3 -10 -9 0 -10 -7 -2 -26 5 -15 7 -29 4 -32 -3 -3 -5 0
-5 7 0 8 -11 11 -29 9 -16 -1 -36 4 -45 11 -10 8 -16 9 -16 3 0 -6 -12 -18
-27 -27 -23 -13 -24 -15 -5 -10 12 4 57 1 100 -6 98 -15 142 -15 153 3 16 25
9 31 -13 12 -12 -10 -18 -13 -14 -6 4 6 3 12 -3 12 -5 0 -11 -5 -13 -12 -3 -8
-9 -8 -24 0 -18 11 -18 12 6 13 14 1 31 2 38 2 6 -1 12 3 12 8 0 5 8 9 18 10
11 0 12 2 4 6 -7 3 -10 10 -5 17 4 7 1 4 -8 -5 -19 -21 -109 -37 -109 -20 0
18 123 87 139 77 4 -3 13 5 20 16 12 19 11 20 -20 16 l-32 -5 36 33 c27 25 46
34 71 34 19 0 37 4 40 8 2 4 -11 6 -31 4 -33 -4 -34 -3 -24 16 6 11 20 24 32
27 11 4 18 9 15 12 -3 3 -20 -3 -39 -14 l-34 -20 5 23 c4 23 -2 33 -11 17z"/>
<path d="M2102 1190 c-34 -31 -34 -37 -2 -20 16 9 48 51 38 50 -2 0 -18 -14
-36 -30z"/>
<path d="M501 1194 c0 -11 3 -14 6 -6 3 7 2 16 -1 19 -3 4 -6 -2 -5 -13z"/>
<path d="M1297 1193 c-5 -8 0 -21 12 -34 25 -28 65 -22 69 10 3 17 0 21 -10
15 -26 -17 -56 -15 -60 3 -2 13 -6 15 -11 6z"/>
<path d="M377 1149 c7 -7 15 -10 18 -7 3 3 -2 9 -12 12 -14 6 -15 5 -6 -5z"/>
<path d="M2070 1139 c0 -5 5 -7 10 -4 6 3 10 8 10 11 0 2 -4 4 -10 4 -5 0 -10
-5 -10 -11z"/>
<path d="M1387 1132 c-14 -3 -16 -7 -6 -18 9 -12 6 -14 -18 -14 -16 0 -34 5
-41 12 -9 9 -12 9 -12 0 0 -6 20 -33 45 -59 24 -26 45 -55 45 -64 0 -18 44
-34 61 -23 6 3 8 12 5 20 -3 8 -1 14 4 14 5 0 8 9 7 19 0 11 -5 17 -9 15 -4
-3 -8 0 -8 7 0 9 -3 9 -14 0 -11 -10 -14 -7 -12 13 0 13 5 22 10 19 5 -3 6 0
4 8 -3 8 -15 13 -27 12 -25 -3 -26 1 -6 20 16 17 3 26 -28 19z m33 -72 c0 -13
-11 -13 -30 0 -12 8 -11 10 8 10 12 0 22 -4 22 -10z m0 -30 c0 -5 -4 -10 -9
-10 -6 0 -13 5 -16 10 -3 6 1 10 9 10 9 0 16 -4 16 -10z"/>
<path d="M2000 1090 c-13 -8 -12 -10 3 -10 9 0 17 5 17 10 0 12 -1 12 -20 0z"/>
<path d="M1542 1042 c-9 -7 -8 -14 8 -32 11 -13 20 -24 20 -25 0 -1 -18 1 -40
5 -31 6 -38 5 -30 -5 5 -6 7 -14 4 -17 -2 -3 16 -5 41 -4 50 1 51 3 31 31 -7
11 -15 28 -17 37 -3 11 -9 15 -17 10z"/>
<path d="M536 1005 c4 -8 1 -15 -7 -15 -7 0 -9 -3 -5 -7 8 -8 13 -9 42 -12 8
0 12 -6 9 -11 -4 -6 -11 -7 -17 -4 -6 4 -5 -3 2 -16 10 -19 17 -21 63 -16 29
3 90 8 136 12 l84 7 -39 13 c-22 8 -47 11 -57 8 -10 -3 -31 -7 -48 -9 -16 -2
-35 -7 -41 -11 -7 -4 -8 -3 -4 4 9 16 -7 15 -22 0 -7 -7 -12 -8 -12 -2 0 5 -5
2 -10 -6 -7 -11 -10 -11 -10 -2 0 7 -4 10 -10 7 -5 -3 -10 -1 -10 5 0 7 6 10
13 7 8 -3 20 -1 28 4 10 6 7 9 -13 9 -16 0 -34 10 -46 25 -22 28 -34 33 -26
10z"/>
<path d="M1720 995 c-8 -9 -8 -15 -2 -15 12 0 26 19 19 26 -2 2 -10 -2 -17
-11z"/>
<path d="M1163 913 c9 -2 23 -2 30 0 6 3 -1 5 -18 5 -16 0 -22 -2 -12 -5z"/>
<path d="M1288 913 c7 -3 16 -2 19 1 4 3 -2 6 -13 5 -11 0 -14 -3 -6 -6z"/>
<path d="M1253 903 c-10 -3 -12 -49 -11 -186 l2 -182 3 174 c2 108 8 180 14
188 12 14 11 14 -8 6z"/>
<path d="M1064 874 c-18 -14 -18 -15 4 -4 12 6 22 13 22 15 0 8 -5 6 -26 -11z"/>
<path d="M955 860 c-19 -8 -19 -9 3 -9 12 -1 22 4 22 9 0 6 -1 10 -2 9 -2 0
-12 -4 -23 -9z"/>
<path d="M1121 841 c-8 -5 5 -7 35 -4 27 3 51 7 53 9 9 8 -75 3 -88 -5z"/>
<path d="M1298 843 c12 -2 32 -2 45 0 12 2 2 4 -23 4 -25 0 -35 -2 -22 -4z"/>
<path d="M1405 821 c22 -11 54 -20 70 -20 31 0 28 1 -85 32 -14 4 -7 -2 15
-12z"/>
<path d="M660 826 c0 -2 8 -10 18 -17 15 -13 16 -12 3 4 -13 16 -21 21 -21 13z"/>
<path d="M1040 814 c-31 -8 -37 -13 -20 -13 14 0 39 6 55 14 37 17 24 16 -35
-1z"/>
<path d="M1178 803 c7 -3 16 -2 19 1 4 3 -2 6 -13 5 -11 0 -14 -3 -6 -6z"/>
<path d="M1308 803 c7 -3 16 -2 19 1 4 3 -2 6 -13 5 -11 0 -14 -3 -6 -6z"/>
<path d="M1110 790 c-18 -12 -2 -12 25 0 13 6 15 9 5 9 -8 0 -22 -4 -30 -9z"/>
<path d="M1384 780 c26 -10 62 -21 80 -24 17 -3 0 5 -38 19 -81 29 -114 33
-42 5z"/>
<path d="M1055 770 c-13 -6 -15 -9 -5 -9 8 0 22 4 30 9 18 12 2 12 -25 0z"/>
<path d="M1780 760 c-12 -8 -12 -10 -1 -10 7 0 11 -6 7 -15 -3 -8 -1 -15 4
-15 14 0 18 13 11 32 -4 13 -10 15 -21 8z"/>
<path d="M710 750 c-8 -5 -10 -10 -5 -10 6 0 17 5 25 10 8 5 11 10 5 10 -5 0
-17 -5 -25 -10z"/>
<path d="M1008 753 c7 -3 16 -2 19 1 4 3 -2 6 -13 5 -11 0 -14 -3 -6 -6z"/>
<path d="M1158 753 c12 -2 30 -2 40 0 9 3 -1 5 -23 4 -22 0 -30 -2 -17 -4z"/>
<path d="M1315 753 c17 -2 53 -13 82 -24 28 -12 60 -19 70 -16 15 4 14 5 -4 6
-12 0 -42 10 -68 21 -26 11 -61 19 -78 19 l-32 -2 30 -4z"/>
<path d="M1107 743 c-4 -3 -28 -12 -54 -19 -30 -8 -39 -13 -23 -13 24 0 116
37 94 38 -6 1 -14 -2 -17 -6z"/>
<path d="M780 721 c0 -12 28 -22 35 -12 3 5 -2 12 -11 15 -21 8 -24 8 -24 -3z"/>
<path d="M1120 700 c-11 -8 -7 -9 15 -4 37 8 45 14 19 14 -10 0 -26 -5 -34
-10z"/>
<path d="M1389 685 c35 -14 71 -25 80 -25 9 1 -9 10 -39 21 -82 30 -115 34
-41 4z"/>
<path d="M1070 680 c-8 -5 -10 -10 -5 -10 6 0 17 5 25 10 8 5 11 10 5 10 -5 0
-17 -5 -25 -10z"/>
<path d="M1028 663 c7 -3 16 -2 19 1 4 3 -2 6 -13 5 -11 0 -14 -3 -6 -6z"/>
<path d="M1100 645 c-30 -13 -49 -24 -42 -25 7 0 27 7 43 16 17 8 49 19 72 24
35 6 37 8 12 9 -16 0 -55 -11 -85 -24z"/>
<path d="M1303 663 c9 -2 23 -2 30 0 6 3 -1 5 -18 5 -16 0 -22 -2 -12 -5z"/>
<path d="M1374 644 c31 -17 93 -38 82 -27 -6 6 -31 16 -91 37 -11 4 -7 0 9
-10z"/>
<path d="M1095 594 c-27 -13 -44 -24 -37 -24 7 0 27 8 45 17 18 9 50 20 72 24
l40 6 -35 1 c-19 0 -57 -10 -85 -24z"/>
<path d="M1368 595 c30 -14 61 -25 70 -24 10 0 6 4 -8 8 -14 5 -40 15 -57 24
-18 10 -38 17 -45 17 -7 0 11 -11 40 -25z"/>
<path d="M1125 561 c-48 -23 -41 -27 12 -7 21 8 47 17 58 19 16 4 15 5 -5 6
-14 0 -43 -8 -65 -18z"/>
<path d="M1298 573 c6 -2 18 -2 25 0 6 3 1 5 -13 5 -14 0 -19 -2 -12 -5z"/>
<path d="M1360 556 c14 -7 36 -16 50 -20 14 -3 7 3 -15 13 -45 22 -73 27 -35
7z"/>
<path d="M1875 2079 c-4 -6 -4 -13 -1 -16 8 -8 36 5 36 17 0 13 -27 13 -35 -1z"/>
<path d="M593 395 c-3 -9 -3 -19 1 -22 8 -9 37 18 30 28 -8 14 -24 11 -31 -6z"/>
</g>
</svg>
