<?xml version="1.0" standalone="no"?>
<!DOCTYPE svg PUBLIC "-//W3C//DTD SVG 20010904//EN"
 "http://www.w3.org/TR/2001/REC-SVG-20010904/DTD/svg10.dtd">
<svg version="1.0" xmlns="http://www.w3.org/2000/svg"
 width="715.000000pt" height="749.000000pt" viewBox="0 0 715.000000 749.000000"
 preserveAspectRatio="xMidYMid meet">

<g transform="translate(0.000000,749.000000) scale(0.100000,-0.100000)"
fill="#000000" stroke="none">
<path d="M0 3745 l0 -3745 3575 0 3575 0 0 3745 0 3745 -3575 0 -3575 0 0
-3745z m3895 2676 c406 -49 804 -197 1149 -426 298 -199 559 -459 751 -750
109 -166 128 -200 206 -368 163 -352 242 -717 242 -1122 0 -450 -95 -840 -299
-1234 -239 -459 -597 -834 -1044 -1093 -302 -174 -649 -292 -989 -336 -173
-22 -543 -22 -709 1 -572 78 -1098 333 -1516 736 -236 228 -477 575 -597 861
-96 231 -167 488 -196 719 -23 179 -23 525 0 701 53 398 195 778 419 1121 223
342 553 652 910 857 296 170 641 288 951 326 67 9 136 17 152 19 98 13 423 5
570 -12z"/>
<path d="M3395 6300 c-166 -13 -283 -31 -430 -66 -634 -152 -1171 -529 -1540
-1081 -81 -121 -221 -402 -270 -543 -92 -266 -133 -490 -142 -785 -29 -920
437 -1772 1235 -2253 215 -130 438 -223 694 -287 184 -47 327 -66 548 -72 718
-21 1401 256 1895 768 202 210 332 394 460 654 182 371 259 705 259 1125 0
296 -36 524 -126 800 -174 534 -543 1012 -1028 1333 -123 81 -383 211 -525
262 -307 111 -723 169 -1030 145z m155 -104 c0 -3 -9 -21 -21 -40 l-21 -36 22
-35 c12 -19 25 -35 29 -35 4 0 20 32 35 70 34 85 56 93 79 28 8 -24 22 -60 31
-80 16 -37 16 -38 -5 -38 -12 0 -23 8 -26 20 -4 15 -14 20 -39 20 -22 0 -34
-5 -34 -14 0 -8 -14 -15 -36 -18 -30 -4 -39 0 -58 25 l-23 29 -13 -31 c-8 -19
-20 -31 -31 -31 -24 0 -24 3 3 49 l22 38 -23 36 -23 37 21 0 c13 0 26 -10 33
-25 l12 -26 19 31 c16 25 47 42 47 26z m221 -79 l-3 -67 31 0 c22 0 31 -5 31
-16 0 -14 -8 -16 -45 -11 -26 2 -49 7 -52 10 -3 4 -2 40 2 82 6 63 10 76 23
73 14 -3 16 -14 13 -71z m-437 47 c10 -25 7 -144 -4 -144 -9 0 -13 19 -25 113
-5 37 -3 47 8 47 8 0 18 -7 21 -16z m-80 -10 c23 -23 21 -24 -30 -21 -39 2
-47 -1 -54 -19 -13 -33 10 -69 44 -69 16 0 31 6 34 13 2 7 -5 12 -17 12 -12 0
-21 6 -21 16 0 11 8 14 33 12 27 -3 33 -7 35 -31 4 -36 -20 -56 -70 -57 -70 0
-104 85 -53 135 28 29 76 33 99 9z m729 -16 c14 -17 17 -31 12 -58 -3 -19 -7
-47 -7 -62 -1 -27 -21 -38 -33 -18 -3 6 -20 10 -37 10 -46 0 -68 25 -68 76 0
34 5 47 27 64 34 26 79 21 106 -12z m-890 -65 c31 -46 42 -70 34 -75 -6 -4
-19 0 -28 8 -21 19 -70 8 -76 -17 -8 -31 -33 -23 -28 9 2 15 6 49 9 75 10 90
29 90 89 0z m1110 21 c-3 -7 -14 -12 -26 -11 -17 2 -23 -7 -35 -55 -9 -39 -19
-58 -29 -58 -12 0 -14 7 -10 28 20 100 20 100 -2 107 -11 3 -18 12 -15 19 4
11 16 11 64 -1 42 -11 57 -19 53 -29z m-1260 -11 c39 -44 33 -114 -10 -131
-72 -27 -69 -29 -93 49 -11 39 -20 73 -18 75 2 2 15 7 28 13 39 15 75 13 93
-6z m1344 -5 c6 -7 13 -46 16 -85 5 -68 4 -73 -14 -73 -12 0 -19 7 -19 19 0
26 -54 45 -71 25 -11 -14 -39 -20 -39 -8 0 10 101 134 110 134 4 0 12 -6 17
-12z m-1479 -88 c20 -62 20 -80 3 -80 -5 0 -20 32 -35 72 -20 55 -23 74 -14
79 18 11 22 3 46 -71z m1572 52 c0 -19 -18 -42 -33 -42 -5 0 -4 6 2 13 6 8 8
17 5 20 -8 7 4 27 17 27 5 0 9 -8 9 -18z m-1636 -70 c30 -78 31 -82 13 -82 -7
0 -23 21 -34 48 l-20 47 5 -57 c6 -72 -8 -76 -61 -16 l-37 43 20 -48 c19 -46
19 -67 1 -67 -4 0 -20 32 -35 71 -23 58 -25 73 -14 80 16 11 38 12 38 2 1 -5
13 -23 29 -41 l28 -33 -5 52 c-3 37 -1 54 9 60 28 17 38 8 63 -59z m1700 34
c-4 -11 -15 -38 -25 -58 -24 -47 -24 -45 11 -53 17 -4 30 -13 30 -21 0 -18 -9
-18 -55 2 -33 13 -36 18 -30 42 15 61 47 121 61 115 10 -3 12 -13 8 -27z m126
-31 c0 -1 -15 -34 -32 -72 -20 -42 -38 -68 -45 -66 -18 6 -17 13 17 87 22 49
33 64 45 60 8 -3 15 -7 15 -9z m61 -26 c12 -6 18 -17 15 -27 -2 -9 -8 -33 -11
-52 l-7 -35 39 38 c34 33 41 36 57 24 17 -13 16 -17 -14 -78 -39 -77 -38 -75
-51 -62 -8 8 -4 23 11 54 l22 44 -41 -40 c-52 -49 -70 -40 -52 29 16 65 13 67
-15 14 -23 -46 -34 -55 -47 -42 -6 7 59 144 69 144 3 0 14 -5 25 -11z m-2077
-30 c47 -56 22 -129 -43 -129 -43 0 -60 9 -76 41 -21 40 -19 66 10 94 35 35
76 33 109 -6z m1394 -13 c734 -136 1345 -629 1631 -1316 53 -128 109 -324 133
-463 20 -114 23 -166 23 -377 -1 -209 -4 -263 -23 -370 -134 -743 -629 -1356
-1327 -1645 -142 -59 -297 -103 -465 -132 -134 -23 -183 -27 -360 -27 -178 0
-226 4 -362 27 -158 28 -346 80 -468 132 -708 298 -1198 911 -1326 1662 -24
135 -28 187 -28 358 0 171 4 222 27 355 81 474 295 883 638 1216 344 334 743
524 1254 600 150 22 477 12 653 -20z m-1543 -79 c19 -35 35 -69 35 -75 0 -19
-32 -14 -77 13 -24 13 -43 22 -43 20 0 -2 10 -20 21 -40 15 -24 18 -40 12 -46
-7 -7 -24 11 -51 53 -32 50 -38 66 -28 76 10 10 21 8 57 -12 59 -34 63 -33 35
13 -18 28 -22 41 -13 50 6 6 12 11 14 11 1 0 18 -29 38 -63z m2391 29 c5 -14
-61 -136 -75 -136 -21 0 -17 19 17 81 37 70 48 80 58 55z m113 -68 c17 -10 17
-15 5 -56 -8 -25 -13 -47 -11 -48 2 -2 20 10 40 27 33 27 39 29 56 17 19 -14
19 -16 -21 -74 -53 -78 -56 -80 -64 -61 -4 11 4 30 20 52 29 38 21 48 -10 14
-26 -29 -48 -39 -63 -30 -9 6 -8 20 8 62 21 56 13 53 -31 -12 -12 -18 -19 -21
-28 -13 -9 9 -1 26 32 73 24 33 44 61 46 61 1 0 11 -5 21 -12z m-2684 -148
c16 -18 17 -23 5 -30 -10 -6 -23 0 -45 24 -16 18 -47 39 -68 45 -31 10 -36 16
-26 27 9 11 15 11 40 -1 39 -21 42 -19 35 19 -5 27 -3 37 11 45 16 9 19 4 23
-49 3 -38 12 -65 25 -80z m-116 -17 c43 -55 48 -68 31 -78 -17 -11 -106 107
-95 125 10 16 19 10 64 -47z m2961 47 c0 -5 -16 -31 -35 -56 -28 -36 -33 -49
-24 -60 19 -23 36 -16 76 32 32 37 42 43 51 31 9 -11 2 -24 -36 -65 -27 -29
-53 -52 -59 -52 -20 0 -73 51 -73 69 0 23 69 111 86 111 8 0 14 -4 14 -10z
m-2981 -133 c23 -32 0 -42 -55 -23 -26 9 -49 14 -51 12 -2 -2 8 -17 22 -35 16
-18 23 -36 19 -43 -5 -8 -25 7 -60 47 -64 71 -60 91 13 69 66 -20 71 -18 35
19 -25 25 -29 36 -20 45 9 9 20 2 47 -30 20 -23 42 -50 50 -61z m3115 -77
c-28 -69 -49 -88 -49 -44 0 33 -24 54 -58 51 -53 -4 -39 18 35 55 61 30 75 34
87 23 12 -12 10 -24 -15 -85z m-3274 30 c10 -5 23 -23 29 -40 27 -80 -62 -138
-124 -80 -30 28 -34 84 -8 112 18 20 73 24 103 8z m3374 -92 c-14 -22 -24 -41
-22 -43 2 -2 23 5 48 16 40 18 45 18 59 4 15 -15 11 -21 -43 -71 -42 -41 -61
-53 -69 -45 -8 8 0 22 28 52 l40 40 -47 -26 c-70 -39 -88 -19 -43 48 31 45 22
48 -22 5 -23 -22 -36 -29 -43 -22 -7 7 7 27 45 63 54 51 57 52 75 36 18 -17
18 -18 -6 -57z m-3533 -79 l49 -42 21 27 c11 14 25 24 30 21 14 -9 11 -17 -21
-53 -20 -22 -35 -30 -44 -25 -36 21 -107 93 -101 103 9 15 12 14 66 -31z m-41
-69 c57 -95 45 -109 -60 -69 -30 11 -59 25 -64 29 -18 18 24 22 69 7 40 -14
62 -9 35 8 -27 17 -49 95 -26 95 2 0 23 -31 46 -70z m3720 55 c9 -11 5 -23
-21 -61 -18 -26 -26 -45 -18 -42 8 4 30 13 50 22 34 14 38 14 53 -3 16 -18 14
-21 -48 -69 -47 -38 -66 -47 -70 -37 -3 9 10 27 32 46 35 30 33 31 -30 6 -45
-18 -57 4 -26 45 43 58 43 64 -1 29 -28 -23 -46 -30 -52 -24 -7 7 8 26 46 57
63 51 67 52 85 31z m-3802 -161 c79 -20 74 -17 66 -38 -4 -11 -13 -15 -26 -10
-26 8 -49 -23 -42 -58 10 -49 -14 -38 -56 27 -39 60 -47 95 -20 95 6 0 41 -7
78 -16z m3933 -23 c16 -16 29 -40 29 -53 0 -25 -41 -70 -73 -81 -29 -11 -66
11 -84 48 -16 34 -16 36 4 63 20 28 58 52 81 52 8 0 27 -13 43 -29z m79 -126
c0 -8 -22 -26 -50 -40 -27 -14 -50 -28 -50 -31 0 -3 7 -18 15 -33 8 -16 11
-32 7 -36 -4 -4 30 -4 74 0 115 10 117 2 26 -100 -34 -39 -45 -46 -52 -35 -6
10 -4 20 5 29 12 12 12 18 -1 43 -8 16 -23 28 -33 28 -23 0 -88 107 -74 121
19 19 118 75 126 72 4 -2 7 -11 7 -18z m-4062 -40 c10 -10 -9 -35 -27 -35 -10
0 -26 -11 -34 -24 -14 -21 -14 -26 -2 -36 12 -10 10 -21 -17 -73 -16 -34 -31
-63 -32 -64 -1 -1 -27 11 -58 26 -31 16 -62 31 -69 33 -7 2 -10 11 -6 21 6 16
11 15 58 -8 52 -27 79 -27 79 -1 0 8 7 19 16 24 13 7 8 18 -33 68 -66 79 -62
88 40 80 45 -4 83 -9 85 -11z m4215 -251 c20 -52 7 -77 -38 -72 -23 2 -36 -4
-54 -25 -30 -36 -49 -16 -20 21 25 32 26 67 2 57 -42 -17 -53 -17 -53 0 0 9 8
19 19 22 10 2 40 15 67 28 27 12 52 20 55 16 3 -3 13 -25 22 -47z m-4343 -4
c0 -10 -30 -90 -34 -90 -9 0 -133 54 -140 61 -6 6 -6 13 0 19 7 7 28 2 67 -15
l57 -25 15 30 c15 29 35 40 35 20z m-87 -106 c31 -17 37 -56 11 -92 -18 -26
-43 -27 -103 -6 -58 20 -61 22 -55 39 5 11 16 10 65 -8 52 -18 61 -19 70 -7
16 27 5 42 -46 62 -59 23 -59 23 -52 42 5 14 10 14 44 0 21 -9 50 -23 66 -30z
m4475 -8 c-1 -1 -36 -14 -75 -29 -46 -16 -75 -22 -79 -15 -10 15 5 25 76 50
54 20 66 21 73 10 5 -7 7 -15 5 -16z m22 -53 c0 -9 -14 -32 -32 -50 -37 -39
-33 -48 15 -35 27 8 37 7 41 -3 3 -9 -18 -21 -70 -39 -92 -31 -104 -19 -49 49
40 48 36 54 -20 31 -29 -13 -34 -12 -39 1 -9 21 -8 23 12 23 9 1 40 9 67 20
64 23 75 24 75 3z m-4551 -84 c32 -19 33 -23 28 -65 -7 -66 -15 -71 -89 -49
-35 10 -67 22 -72 26 -10 9 10 74 31 94 20 21 62 19 102 -6z m4594 -73 c4 -10
-13 -18 -61 -31 -37 -10 -73 -20 -79 -23 -8 -2 -13 4 -13 16 0 17 11 23 63 35
80 19 84 20 90 3z m-4660 -75 c11 7 24 6 38 -2 19 -9 21 -18 17 -61 -3 -27 -9
-53 -14 -58 -5 -5 -39 -2 -78 7 l-68 16 5 45 c6 57 30 79 62 58 14 -9 27 -11
38 -5z m4680 -59 c9 -10 20 -32 23 -49 5 -26 1 -37 -19 -57 -53 -53 -137 -23
-137 49 0 47 29 75 78 75 25 0 45 -7 55 -18z m-4643 -101 c0 -10 -8 -21 -19
-24 -28 -7 -33 -53 -7 -71 16 -11 18 -17 9 -26 -8 -9 -27 -3 -82 29 -74 44
-84 66 -32 77 14 3 46 12 71 19 60 18 60 18 60 -4z m4678 -70 c3 -8 0 -11 -6
-7 -7 4 -21 2 -32 -4 -17 -9 -20 -8 -20 10 0 17 5 21 27 18 14 -2 29 -9 31
-17z m17 -80 c4 -24 2 -48 -5 -61 -10 -19 -18 -22 -54 -17 -27 4 -47 1 -60 -9
-25 -17 -36 -18 -36 -1 0 7 14 23 30 35 39 30 38 47 -2 47 -23 0 -33 5 -33 15
0 11 15 17 50 21 105 12 103 13 110 -30z m-10 -136 c14 -13 25 -35 25 -47 0
-26 -25 -68 -41 -68 -12 0 -12 37 1 45 28 17 -6 65 -45 65 -28 0 -55 -34 -48
-61 7 -25 19 -24 26 1 8 32 24 23 29 -15 2 -20 0 -35 -7 -35 -5 0 -20 -3 -33
-6 -18 -5 -25 0 -37 30 -9 20 -13 47 -9 61 14 57 96 74 139 30z m-4738 -57
c13 -12 23 -32 23 -45 0 -30 -42 -73 -70 -73 -26 0 -70 43 -70 68 0 11 9 31
21 46 25 32 64 34 96 4z m4761 -157 c-3 -12 -132 -68 -160 -70 -17 -2 -7 29
12 39 24 13 28 65 5 74 -8 3 -15 14 -15 25 0 18 6 17 80 -17 51 -24 79 -42 78
-51z m-8 -118 c0 -7 -20 -23 -45 -35 -50 -24 -50 -38 1 -38 28 0 35 -4 32 -17
-2 -10 -7 -17 -11 -17 -4 1 -39 5 -78 8 -85 9 -89 25 -14 65 l50 26 -47 3
c-38 2 -48 7 -48 20 0 16 7 17 80 8 57 -6 80 -13 80 -23z m-4710 -97 c0 -19
-137 -43 -153 -27 -15 15 -4 23 40 31 67 13 113 11 113 -4z m4632 -37 c62 -13
60 -12 53 -31 -5 -12 -14 -14 -43 -8 -20 4 -54 11 -74 14 -24 4 -38 12 -38 21
0 18 30 19 102 4z m-4752 -39 c0 -19 4 -20 53 -15 28 4 57 8 64 10 6 2 14 -3
17 -11 5 -14 1 -16 -79 -32 -32 -7 -40 -12 -39 -30 1 -37 -23 -24 -31 16 -3
20 -9 47 -12 60 -4 16 -1 22 11 22 9 0 16 -8 16 -20z m4690 -25 c0 -9 -7 -18
-15 -21 -16 -7 -21 -54 -5 -54 5 0 20 16 32 35 24 36 54 45 76 23 27 -27 6
-98 -28 -98 -23 0 -27 25 -5 34 16 6 21 46 5 46 -5 0 -16 -15 -25 -34 -20 -42
-41 -51 -71 -31 -28 18 -32 59 -8 93 17 25 44 29 44 7z m-4529 -107 c6 -10 9
-33 7 -51 -3 -29 -8 -33 -61 -50 -57 -18 -87 -17 -87 2 0 6 12 13 28 16 81 17
87 20 87 45 0 28 -13 30 -92 15 -35 -6 -43 -5 -43 8 0 10 19 20 58 29 65 16
88 13 103 -14z m4534 -33 c74 -22 75 -23 69 -39 -3 -8 -18 -13 -37 -12 -28 1
-32 -3 -35 -26 -3 -22 1 -28 17 -28 21 0 35 -15 27 -28 -5 -9 -121 16 -144 31
-22 15 -1 29 34 22 19 -3 34 -2 34 2 0 4 3 18 6 30 5 17 0 22 -25 28 -33 7
-43 35 -13 35 9 0 40 -7 67 -15z m-4625 -135 c0 -18 1 -18 57 1 67 23 69 23
76 5 4 -11 -10 -20 -51 -34 -47 -16 -57 -23 -57 -42 0 -13 -6 -25 -12 -27 -14
-5 -48 101 -38 117 9 15 25 2 25 -20z m165 -89 c0 -19 -134 -66 -148 -52 -14
14 -11 16 63 44 70 26 85 28 85 8z m4451 -1 c17 0 22 -4 18 -15 -5 -11 -22
-15 -63 -15 l-56 -1 25 -20 c14 -12 33 -27 43 -34 10 -7 15 -19 11 -29 -6 -17
-5 -17 -107 66 -21 17 -26 28 -21 42 6 16 14 18 67 12 33 -3 70 -6 83 -6z
m-4416 -91 c0 -6 -25 -21 -55 -35 -49 -23 -54 -28 -49 -50 4 -17 2 -24 -8 -24
-12 0 -47 75 -49 105 -1 18 18 16 27 -4 9 -19 10 -19 64 3 55 23 70 24 70 5z
m4313 -37 c48 -48 55 -60 45 -73 -10 -11 -31 -14 -91 -11 -67 3 -78 6 -75 20
2 9 12 17 23 17 23 0 49 45 35 59 -12 12 -13 46 -2 46 4 0 33 -26 65 -58z
m-4273 -52 c21 -21 26 -65 10 -90 -7 -12 -12 -12 -21 -3 -9 9 -9 16 1 28 10
12 10 18 0 30 -7 8 -19 15 -28 15 -11 0 -13 -8 -8 -38 7 -50 -11 -77 -46 -69
-28 7 -52 50 -42 79 9 28 29 16 29 -18 0 -19 5 -29 15 -29 12 0 14 10 12 47
-3 36 0 48 15 57 27 15 41 13 63 -9z m4243 -176 c-3 -8 -8 -14 -11 -14 -12 0
-132 72 -132 79 0 21 19 18 81 -15 46 -24 66 -40 62 -50z m-4199 9 c-14 -25
-23 -47 -20 -50 3 -3 20 4 39 16 29 17 36 19 40 7 5 -12 -30 -46 -48 -46 -3 0
-23 -11 -44 -25 -34 -21 -40 -22 -45 -8 -4 8 5 35 19 59 14 23 25 45 25 48 0
4 -18 -3 -40 -14 -47 -24 -50 -24 -50 -6 0 22 122 87 138 74 10 -8 7 -20 -14
-55z m4084 -5 c-3 -7 -13 -15 -24 -17 -21 -4 -34 -19 -34 -38 0 -20 19 -15 52
12 36 30 42 31 68 5 27 -27 25 -36 -11 -72 -24 -24 -33 -28 -42 -18 -9 9 -7
15 11 27 12 9 22 22 22 29 0 19 -6 18 -46 -12 -32 -25 -35 -26 -59 -10 -47 31
-21 106 36 106 20 0 29 -4 27 -12z m-3988 -82 c0 -17 -118 -88 -131 -80 -17
10 -6 21 56 62 60 39 75 43 75 18z m3905 -66 c50 -34 58 -36 75 -15 8 10 17
12 22 7 6 -6 -5 -30 -28 -61 -26 -37 -40 -49 -47 -42 -8 8 -7 15 1 23 18 18
16 22 -38 57 -49 32 -57 41 -43 54 9 10 10 10 58 -23z m-3822 -54 c4 -10 -12
-28 -44 -51 -42 -30 -48 -38 -40 -54 10 -17 6 -31 -9 -31 -3 0 -21 21 -39 46
-23 33 -29 50 -22 57 8 8 15 5 25 -8 13 -18 16 -17 62 18 55 41 60 43 67 23z
m3777 -38 c56 -39 71 -60 53 -71 -13 -7 -130 87 -125 101 5 17 6 17 72 -30z
m-31 -54 c58 -48 28 -134 -46 -134 -34 0 -83 36 -83 61 0 6 -7 9 -15 5 -27
-10 -16 16 25 55 47 46 76 49 119 13z m-3668 -13 c16 -16 29 -40 29 -53 0 -25
-41 -70 -73 -81 -47 -17 -111 58 -88 101 15 29 60 62 83 62 11 0 33 -13 49
-29z m89 -86 c0 -8 11 -25 25 -39 37 -37 34 -86 -6 -120 -17 -14 -39 -26 -49
-26 -10 0 -32 12 -49 26 -39 32 -41 71 -6 105 14 13 35 34 48 46 26 26 37 29
37 8z m3481 -128 c-35 -32 -44 -36 -61 -27 -11 6 -20 17 -20 25 0 8 -8 15 -18
15 -23 0 -42 19 -42 42 0 9 14 33 31 53 l31 35 60 -52 60 -52 -41 -39z m-147
3 c32 -12 58 -62 50 -95 -21 -85 -154 -65 -154 23 0 42 6 54 35 70 25 14 37
15 69 2z m-3214 -6 c0 -3 -23 -32 -51 -65 -42 -48 -55 -57 -66 -47 -12 9 -5
21 39 65 46 46 78 66 78 47z m40 -26 c0 -7 14 -25 32 -39 43 -36 45 -90 4
-125 -33 -29 -65 -30 -100 -3 -35 28 -36 80 -1 114 13 14 29 25 36 25 6 0 9 6
6 14 -6 15 1 26 15 26 4 0 8 -6 8 -12z m3073 -116 c35 -45 43 -61 32 -65 -8
-4 -29 12 -54 41 l-39 47 -31 -22 c-46 -34 -50 -8 -4 32 21 18 40 31 44 30 3
-2 26 -31 52 -63z m-2891 -45 c16 -12 28 -23 28 -25 0 -11 -84 -122 -92 -122
-6 0 -26 16 -45 35 -42 42 -40 74 8 118 33 31 53 30 101 -6z m2788 -26 c65
-88 49 -116 -19 -31 l-39 49 -27 -21 c-22 -17 -29 -19 -36 -7 -12 19 -11 4 6
-66 28 -116 15 -126 -80 -59 -55 39 -64 49 -51 56 11 6 22 6 31 -2 20 -16 65
14 58 39 -3 14 10 30 49 59 29 23 56 40 60 39 4 -1 25 -26 48 -56z m-2723 -23
c4 -7 6 -20 5 -29 -4 -21 44 -47 59 -32 12 12 39 7 39 -7 0 -5 -30 -29 -66
-55 -55 -40 -68 -45 -79 -34 -11 12 -10 28 3 92 16 76 24 89 39 65z m2490
-143 c18 -33 33 -63 33 -66 0 -9 -69 -39 -89 -39 -26 0 -44 26 -37 54 5 19 1
26 -24 36 -17 7 -30 16 -30 21 0 17 22 20 45 5 13 -9 34 -16 45 -16 20 0 20 1
5 30 -19 37 -19 42 3 38 9 -2 31 -30 49 -63z m-2333 47 c2 -4 -9 -32 -25 -62
-25 -46 -27 -55 -14 -62 15 -9 22 -43 8 -36 -66 31 -103 54 -103 65 0 15 22
17 36 3 7 -7 21 9 43 45 32 53 44 64 55 47z m2201 -114 c19 -39 35 -72 35 -74
0 -1 -7 -4 -15 -8 -21 -8 -89 126 -72 143 6 6 12 11 14 11 2 0 19 -32 38 -72z
m-2135 32 c11 -6 17 -17 14 -25 -5 -11 -11 -12 -30 -3 -13 6 -24 17 -24 25 0
16 14 17 40 3z m2076 -66 c36 -84 23 -97 -47 -47 l-49 35 19 -43 c19 -43 19
-59 0 -59 -13 0 -71 129 -63 141 9 16 29 10 72 -22 48 -35 50 -33 22 21 -14
28 -16 40 -7 43 19 7 23 2 53 -69z m-1972 44 c-4 -13 -7 -51 -7 -86 2 -54 -1
-63 -15 -60 -12 2 -18 15 -20 41 l-3 37 -30 -21 c-22 -16 -34 -18 -42 -10 -6
6 -9 12 -6 14 57 40 82 63 91 83 15 32 44 33 32 2z m101 -35 c-4 -10 -16 -40
-26 -67 -21 -57 -35 -74 -48 -60 -5 5 2 37 18 76 19 50 31 68 45 68 13 0 16
-4 11 -17z m1743 -130 c-7 -32 -24 -15 -51 51 -23 55 -26 70 -15 77 10 7 20
-7 41 -52 15 -34 27 -68 25 -76z m-1696 82 c-21 -46 -13 -51 19 -12 17 20 35
35 40 32 5 -4 9 -30 10 -58 0 -54 4 -52 29 17 8 23 13 27 23 17 17 -17 -30
-154 -51 -146 -7 3 -18 5 -24 5 -7 0 -9 20 -5 58 6 55 5 56 -11 36 -9 -11 -24
-31 -33 -44 -12 -18 -21 -22 -41 -17 l-26 7 18 47 c10 27 23 61 30 77 8 22 14
26 22 18 9 -9 8 -18 0 -37z m1556 -32 c6 -21 14 -54 17 -74 7 -36 6 -36 -35
-47 -23 -6 -48 -8 -56 -5 -15 5 -29 41 -20 50 3 4 -3 12 -14 20 -49 34 -5 87
76 92 16 1 23 -8 32 -36z m-1347 5 c22 -6 39 -17 39 -24 0 -6 -9 -42 -21 -79
-18 -58 -23 -66 -35 -54 -11 12 -11 21 1 63 20 64 20 63 -15 71 -16 4 -30 13
-30 21 0 17 11 17 61 2z m1208 -81 c21 -77 20 -79 -52 -92 -29 -6 -37 -4 -37
8 0 9 13 17 35 21 26 5 33 11 28 22 -4 12 -15 15 -39 11 -44 -7 -47 18 -3 27
22 4 30 11 27 23 -3 14 -11 17 -41 15 -20 -2 -37 1 -37 7 0 10 93 41 97 32 2
-4 11 -37 22 -74z m-1116 57 c12 -4 13 -13 7 -37 -5 -18 -14 -51 -20 -74 -10
-41 -40 -61 -40 -28 0 18 31 145 35 145 2 0 10 -3 18 -6z m121 -59 c-5 -30 -4
-33 24 -37 28 -4 31 -1 37 29 7 38 35 46 35 10 0 -51 -23 -137 -36 -137 -9 0
-14 12 -14 35 0 32 -2 35 -30 35 -25 0 -30 -4 -30 -25 0 -17 -6 -25 -16 -25
-15 0 -16 9 -11 70 7 79 11 92 33 83 10 -4 13 -14 8 -38z m851 23 c30 -133 29
-128 6 -128 -15 0 -20 10 -26 46 -11 73 -13 77 -51 69 -26 -4 -34 -2 -34 9 0
16 19 23 67 25 26 1 34 -4 38 -21z m-140 -4 c19 -8 45 -55 45 -82 0 -11 -9
-31 -21 -46 -16 -20 -29 -26 -59 -26 -43 0 -74 25 -50 40 9 5 19 5 27 -1 6 -6
22 -9 35 -7 18 2 24 10 26 39 4 43 -16 64 -53 55 -30 -8 -33 -26 -5 -26 11 0
20 -7 20 -15 0 -8 -9 -15 -19 -15 -11 0 -26 -3 -35 -6 -13 -5 -16 1 -16 33 0
32 5 42 23 51 25 12 58 15 82 6z m-491 -20 c9 -8 16 -22 16 -30 0 -19 -26 -18
-34 1 -7 19 -46 20 -46 0 0 -8 16 -21 36 -30 31 -13 35 -18 32 -47 -3 -32 -5
-33 -47 -33 -30 0 -47 5 -55 17 -14 23 0 35 24 20 23 -14 50 -16 50 -3 0 5
-10 13 -22 17 -76 23 -74 104 2 104 16 0 36 -7 44 -16z m350 -6 c3 -13 7 -49
9 -80 3 -51 1 -58 -15 -58 -16 0 -18 9 -18 80 0 76 14 108 24 58z m-280 -3 c3
-9 18 -15 36 -15 18 0 33 6 36 15 5 11 23 15 74 15 l67 0 6 -77 c3 -43 4 -79
2 -82 -2 -2 -11 -1 -20 2 -11 5 -15 22 -15 67 l0 60 -34 0 c-19 0 -36 5 -38
12 -2 6 -18 -22 -34 -63 -41 -101 -59 -100 -95 4 -25 71 -26 77 -9 77 10 0 20
-7 24 -15z"/>
<path d="M3627 6120 c-3 -13 0 -20 9 -20 8 0 14 9 14 20 0 11 -4 20 -9 20 -5
0 -11 -9 -14 -20z"/>
<path d="M3889 6116 c-14 -29 -5 -72 16 -80 8 -3 14 0 12 7 -1 7 7 11 20 10
17 -2 24 4 29 21 14 57 -54 94 -77 42z"/>
<path d="M3036 6075 c-10 -26 -7 -35 9 -35 17 0 19 18 6 38 -7 11 -10 10 -15
-3z"/>
<path d="M2864 6048 c4 -13 9 -35 12 -50 4 -18 13 -28 25 -28 26 0 38 29 27
68 -7 27 -13 32 -39 32 -28 0 -31 -3 -25 -22z"/>
<path d="M4243 6021 c-10 -16 -9 -20 8 -24 20 -5 22 -2 11 25 -7 17 -8 17 -19
-1z"/>
<path d="M2472 5908 c-28 -28 -5 -88 33 -88 34 0 50 32 33 68 -14 30 -46 40
-66 20z"/>
<path d="M3350 5810 c-118 -10 -331 -57 -470 -105 -660 -228 -1174 -798 -1330
-1475 -47 -207 -53 -267 -47 -527 4 -219 7 -249 35 -373 109 -481 361 -888
741 -1194 218 -175 536 -326 821 -390 185 -42 253 -48 506 -44 215 4 251 7
364 32 304 67 583 193 827 372 91 67 292 261 368 355 194 241 336 534 405 839
45 202 53 286 47 516 -4 183 -9 227 -36 351 -154 720 -648 1288 -1333 1534
-276 99 -571 134 -898 109z m449 -356 c130 -70 342 -183 471 -252 312 -167
397 -212 507 -269 51 -26 93 -51 93 -54 0 -4 -71 -44 -157 -89 -87 -46 -299
-159 -471 -252 -173 -92 -315 -168 -317 -168 -2 0 -83 -43 -179 -95 -97 -52
-181 -95 -187 -95 -12 0 -67 29 -564 295 -187 100 -431 230 -542 289 -112 59
-203 111 -203 114 0 6 166 97 485 265 60 32 184 98 275 147 91 48 219 116 285
150 66 35 152 81 190 102 39 21 72 38 74 38 2 0 110 -57 240 -126z m-1504
-870 l65 -36 0 -736 0 -737 348 -187 c191 -103 383 -206 427 -229 44 -23 159
-84 254 -136 l175 -94 35 19 c20 11 284 154 586 317 303 163 556 302 563 307
9 8 12 169 12 743 l0 733 64 36 c35 20 67 36 70 36 3 0 5 -367 4 -816 l-3
-817 -465 -251 c-256 -139 -512 -277 -570 -308 -58 -30 -132 -70 -165 -89 -33
-18 -77 -41 -97 -52 l-37 -18 -203 109 c-112 60 -239 129 -283 152 -44 24
-105 56 -135 73 -30 16 -104 56 -165 88 -60 32 -209 111 -330 176 l-220 119
-3 817 c-1 449 0 817 3 817 2 0 34 -16 70 -36z m310 -147 l60 -32 3 -648 c1
-357 -1 -647 -5 -645 -5 1 -36 18 -71 37 l-62 34 0 643 c0 354 3 644 8 644 4
0 34 -15 67 -33z m1975 -602 l0 -634 -57 -39 c-32 -21 -64 -42 -70 -46 -10 -6
-13 125 -13 638 l0 646 68 34 c37 19 68 35 70 36 1 0 2 -286 2 -635z m-945
118 c38 -65 82 -143 100 -173 18 -30 76 -131 130 -225 54 -93 112 -195 130
-225 62 -106 148 -256 185 -320 20 -36 44 -77 54 -92 l18 -28 -79 0 -80 0 -44
73 -44 72 -231 3 -231 2 -44 -75 -44 -75 -78 0 -79 0 30 53 c16 28 45 79 64
112 19 33 95 163 168 290 l133 229 -28 51 c-95 171 -107 189 -118 169 -10 -18
-83 -145 -155 -269 -19 -33 -61 -105 -92 -160 -32 -55 -69 -121 -84 -147 l-28
-48 101 0 c57 0 101 -4 101 -9 0 -6 -16 -37 -35 -70 l-36 -61 -107 0 -107 0
-39 -70 -40 -70 -78 0 c-43 0 -78 2 -78 5 0 3 11 22 24 43 13 20 67 114 121
207 53 94 114 199 135 235 21 36 83 143 139 239 56 95 101 175 101 178 0 3 8
17 19 31 10 15 31 50 46 77 69 125 99 174 106 170 4 -3 37 -58 74 -122z
m-1037 -1342 c142 -76 286 -154 322 -173 113 -61 340 -182 415 -223 22 -12 83
-44 135 -72 l95 -51 605 329 c333 180 608 328 613 329 4 0 7 -35 7 -79 l0 -78
-132 -71 c-73 -39 -349 -188 -613 -331 l-480 -260 -90 48 c-49 27 -138 74
-197 105 -269 142 -943 507 -949 514 -7 8 1 152 8 152 3 0 120 -62 261 -139z"/>
<path d="M3193 5226 c-199 -107 -425 -227 -503 -267 -77 -40 -140 -76 -140
-79 1 -4 154 -87 705 -381 94 -50 200 -106 237 -126 l68 -35 212 113 c117 62
251 134 299 159 383 203 499 266 499 270 0 3 -35 23 -78 45 -42 21 -189 100
-327 173 -285 153 -604 322 -608 322 -1 0 -165 -87 -364 -194z"/>
<path d="M3714 3333 c-31 -54 -66 -113 -76 -130 l-20 -33 157 0 c86 0 154 3
152 8 -39 70 -149 252 -152 252 -2 0 -30 -44 -61 -97z"/>
<path d="M5161 5496 c-8 -9 -8 -16 -2 -20 6 -4 15 3 21 14 12 23 -2 27 -19 6z"/>
<path d="M1850 5460 c-19 -19 -19 -22 -5 -49 19 -38 50 -48 76 -25 25 22 24
36 -3 61 -37 33 -46 35 -68 13z"/>
<path d="M1602 5101 c9 -15 15 -17 26 -9 10 9 11 13 0 19 -7 5 -19 9 -26 9
-10 0 -10 -4 0 -19z"/>
<path d="M5498 5099 c-22 -13 -24 -67 -3 -75 24 -10 63 4 75 26 23 43 -26 76
-72 49z"/>
<path d="M5660 4809 c7 -11 13 -19 14 -17 1 1 8 11 15 21 12 15 11 17 -13 17
-24 0 -26 -2 -16 -21z"/>
<path d="M1485 4920 c14 -15 20 -17 26 -8 8 13 -7 28 -30 28 -11 0 -10 -5 4
-20z"/>
<path d="M5752 4688 c2 -12 11 -24 21 -26 14 -3 18 1 15 20 -2 12 -11 24 -21
26 -14 3 -18 -1 -15 -20z"/>
<path d="M1242 4428 c-23 -23 -13 -44 28 -57 45 -13 60 -9 60 18 0 34 -64 63
-88 39z"/>
<path d="M1197 4273 c-4 -3 -7 -15 -7 -25 0 -22 26 -24 34 -2 10 25 -10 45
-27 27z"/>
<path d="M1255 4250 c-8 -24 1 -40 21 -40 9 0 14 11 14 30 0 35 -25 42 -35 10z"/>
<path d="M5844 4209 c-20 -22 -13 -43 19 -63 21 -14 70 11 75 37 9 45 -59 64
-94 26z"/>
<path d="M1197 4104 c-9 -10 2 -24 19 -24 8 0 14 7 14 15 0 15 -21 21 -33 9z"/>
<path d="M5932 3968 c2 -13 10 -23 18 -23 8 0 16 10 18 23 3 17 -2 22 -18 22
-16 0 -21 -5 -18 -22z"/>
<path d="M5910 3646 c0 -18 6 -19 35 -6 11 5 15 9 8 9 -6 1 -18 4 -27 7 -11 4
-16 1 -16 -10z"/>
<path d="M5706 2795 c-4 -11 2 -15 21 -15 21 0 24 2 13 15 -7 8 -16 15 -20 15
-4 0 -10 -7 -14 -15z"/>
<path d="M5371 2301 c-10 -7 -11 -10 -1 -16 10 -6 9 -11 -4 -21 -17 -12 -16
-14 3 -33 23 -23 51 -27 69 -9 19 19 14 45 -14 67 -30 23 -33 24 -53 12z"/>
<path d="M1696 2274 c-20 -20 -21 -63 -1 -70 24 -10 63 4 75 26 24 45 -37 82
-74 44z"/>
<path d="M1803 2134 c-12 -19 -14 -30 -6 -43 24 -39 93 -14 93 35 0 17 -4 21
-20 17 -11 -3 -20 0 -20 6 0 21 -29 11 -47 -15z"/>
<path d="M5257 2172 c-9 -10 -17 -24 -17 -30 0 -17 35 -15 50 4 11 12 11 18
-2 30 -13 13 -16 12 -31 -4z"/>
<path d="M5312 2128 c-16 -16 -15 -38 2 -38 7 0 19 6 25 14 16 19 -10 41 -27
24z"/>
<path d="M5142 2058 c-30 -30 1 -88 46 -88 47 0 49 65 2 90 -24 13 -33 13 -48
-2z"/>
<path d="M1987 1982 c-30 -33 -16 -82 24 -82 16 0 59 43 59 59 0 4 -7 16 -15
27 -13 16 -14 16 -9 2 4 -12 1 -18 -10 -18 -9 0 -16 7 -16 15 0 20 -13 19 -33
-3z"/>
<path d="M2116 1865 c-9 -13 -16 -28 -16 -33 0 -11 39 -47 43 -41 47 60 56 76
45 87 -20 20 -55 14 -72 -13z"/>
<path d="M4835 1769 c-4 -6 -5 -11 -4 -12 2 -2 11 -8 20 -15 14 -11 16 -9 11
13 -5 26 -16 32 -27 14z"/>
<path d="M2270 1761 c0 -5 -3 -18 -7 -28 -6 -17 -5 -17 15 1 12 10 19 23 16
27 -7 12 -24 11 -24 0z"/>
<path d="M4716 1664 c-26 -25 0 -46 32 -26 13 9 6 42 -8 42 -5 0 -16 -7 -24
-16z"/>
<path d="M4231 1531 c-23 -15 -5 -44 21 -35 30 9 30 8 22 28 -7 18 -22 20 -43
7z"/>
<path d="M4262 1469 c-23 -9 -26 -29 -6 -36 16 -5 44 21 36 33 -4 8 -15 8 -30
3z"/>
<path d="M3480 1391 c0 -20 13 -41 21 -35 15 9 10 44 -6 44 -8 0 -15 -4 -15
-9z"/>
</g>
</svg>
