<?xml version="1.0" standalone="no"?>
<!DOCTYPE svg PUBLIC "-//W3C//DTD SVG 20010904//EN"
 "http://www.w3.org/TR/2001/REC-SVG-20010904/DTD/svg10.dtd">
<svg version="1.0" xmlns="http://www.w3.org/2000/svg"
 width="225.000000pt" height="225.000000pt" viewBox="0 0 225.000000 225.000000"
 preserveAspectRatio="xMidYMid meet">

<g transform="translate(0.000000,225.000000) scale(0.100000,-0.100000)"
fill="#000000" stroke="none">
<path d="M0 1125 l0 -1125 1125 0 1125 0 0 1125 0 1125 -1125 0 -1125 0 0
-1125z m1015 630 c30 -29 32 -64 5 -97 -15 -20 -32 -27 -77 -32 -94 -11 -145
-52 -164 -133 -18 -82 36 -170 120 -193 54 -14 76 -10 76 15 0 15 -9 21 -38
26 -55 9 -84 28 -103 67 -36 76 15 164 98 166 37 1 43 -2 46 -21 2 -14 -2 -24
-10 -25 -55 -6 -76 -17 -86 -46 -18 -52 6 -79 78 -89 41 -5 80 -43 80 -77 0
-13 -11 -35 -25 -50 -33 -36 -101 -36 -173 0 -80 40 -122 109 -122 198 0 43
29 118 58 149 27 30 92 59 147 66 41 5 50 9 50 26 0 18 -6 20 -49 18 -75 -2
-130 -28 -181 -85 -111 -123 -93 -292 42 -394 73 -55 226 -74 270 -32 23 21
23 23 23 268 0 235 1 249 21 274 27 34 86 37 115 5 17 -19 19 -44 24 -293 4
-232 7 -271 20 -271 13 0 16 38 20 265 3 146 9 273 14 283 19 40 79 49 117 18
24 -19 24 -20 29 -292 4 -244 7 -274 21 -277 15 -3 17 24 20 282 4 292 8 316
43 303 14 -6 16 -42 16 -295 0 -278 -1 -290 -21 -316 -20 -26 -57 -34 -93 -20
-37 14 -41 44 -46 314 -4 227 -7 265 -20 265 -13 0 -16 -39 -20 -273 -5 -273
-5 -274 -29 -293 -30 -24 -72 -24 -102 0 -24 19 -24 20 -29 293 -4 234 -7 273
-20 273 -13 0 -16 -37 -20 -252 -5 -236 -6 -253 -26 -280 -32 -42 -61 -53
-151 -53 -193 0 -330 118 -341 294 -5 86 8 139 51 202 62 91 157 143 265 144
43 0 57 -5 77 -25z m-47 -267 c19 -19 14 -56 -8 -63 -24 -8 -50 10 -50 34 0
19 19 41 35 41 6 0 16 -5 23 -12z m-405 -469 c23 -12 56 -48 57 -61 0 -15 -42
-8 -67 12 -31 24 -51 25 -81 4 -26 -18 -30 -74 -6 -98 20 -20 68 -21 88 0 9 8
28 14 43 12 l26 -3 -27 -32 c-67 -80 -196 -34 -196 69 0 22 5 48 10 58 23 43
105 63 153 39z m238 1 c13 -8 19 -7 19 0 0 6 10 10 23 8 21 -3 22 -8 25 -106
l3 -103 -38 0 c-21 0 -60 -1 -87 -2 -43 -1 -51 2 -77 31 -31 35 -39 94 -19
132 22 42 106 64 151 40z m151 0 c2 -7 14 -7 36 1 40 14 62 6 62 -21 0 -16 -7
-20 -29 -20 -42 0 -61 -32 -61 -102 0 -55 -1 -58 -25 -58 l-25 0 0 105 c0 97
1 105 19 105 11 0 21 -5 23 -10z m182 -57 c11 -35 23 -63 26 -63 3 0 15 28 26
63 28 86 49 85 79 -3 18 -52 24 -61 30 -45 5 11 16 40 25 65 14 36 23 46 45
48 23 3 27 1 21 -15 -4 -10 -21 -58 -38 -106 -29 -82 -33 -88 -56 -85 -21 2
-29 13 -44 57 -10 30 -20 56 -22 58 -2 2 -13 -24 -25 -57 -19 -51 -26 -60 -47
-60 -13 0 -24 1 -24 3 0 2 -16 47 -35 101 -19 54 -35 100 -35 103 0 2 12 3 27
1 24 -3 30 -11 47 -65z m433 47 c58 -35 64 -116 11 -167 -24 -23 -38 -28 -79
-28 -44 0 -54 4 -80 33 -49 54 -36 136 26 170 31 17 87 14 122 -8z m123 10 c0
-7 6 -7 19 0 29 15 83 12 108 -5 26 -18 41 -69 42 -142 1 -52 0 -53 -29 -53
l-30 0 0 75 c0 70 -2 76 -25 87 -19 9 -29 8 -50 -6 -23 -15 -25 -23 -25 -86
l0 -70 -30 0 -30 0 1 98 c1 53 3 100 6 105 6 11 43 8 43 -3z m-290 -264 c0 -3
-4 -8 -10 -11 -5 -3 -10 -1 -10 4 0 6 5 11 10 11 6 0 10 -2 10 -4z m-699 -36
c35 -19 23 -40 -23 -40 -40 0 -41 -1 -25 -17 14 -15 21 -16 37 -5 11 7 20 8
20 3 0 -13 -30 -22 -51 -16 -24 8 -33 39 -19 65 12 22 31 25 61 10z m115 -40
c1 -40 1 -41 -3 -7 -2 21 -11 41 -19 44 -17 6 -46 -15 -38 -28 3 -5 0 -17 -5
-26 -8 -15 -10 -10 -11 22 0 40 0 41 38 40 l37 0 1 -45z m112 -4 c-4 -59 -23
-76 -64 -58 -14 7 -24 15 -21 18 3 3 14 0 26 -8 18 -11 23 -10 38 5 17 18 17
18 -8 12 -44 -11 -78 42 -47 73 6 6 27 11 45 9 l34 -2 -3 -49z m39 -13 c-2
-16 -4 -5 -4 22 0 28 2 40 4 28 2 -13 2 -35 0 -50z m102 53 c7 -8 11 -30 8
-48 l-4 -33 -1 38 c-3 65 -57 60 -65 -6 -3 -25 -4 -22 -5 13 -2 44 -1 46 27
48 16 1 34 -4 40 -12z m105 -2 c26 -25 19 -34 -26 -34 -40 0 -41 -1 -25 -17
14 -15 21 -16 37 -5 12 7 20 8 20 2 0 -16 -49 -23 -65 -10 -8 7 -15 22 -15 34
0 43 44 61 74 30z m104 4 c23 -23 13 -38 -23 -38 -19 0 -35 -4 -35 -9 0 -16
31 -21 53 -9 20 10 21 10 8 -6 -18 -22 -50 -17 -67 9 -26 40 31 86 64 53z m75
0 c-14 -7 -23 -22 -26 -42 -4 -30 -4 -29 -5 6 -2 36 7 46 38 47 9 0 6 -5 -7
-11z m147 -7 c13 -24 13 -61 1 -61 -6 0 -11 15 -13 33 -2 24 -8 32 -23 32 -15
0 -21 -8 -23 -32 -4 -44 -18 -42 -18 2 0 34 8 41 48 44 10 0 22 -8 28 -18z
m110 -31 c0 -65 -38 -94 -71 -53 -13 15 -12 15 9 4 25 -13 52 -9 52 9 0 7 -8
9 -21 5 -22 -7 -59 18 -59 41 0 23 31 44 61 42 27 -2 29 -5 29 -48z m-210 5
c0 -19 -4 -35 -10 -35 -5 0 -10 16 -10 35 0 19 5 35 10 35 6 0 10 -16 10 -35z"/>
<path d="M712 974 c-28 -19 -30 -74 -4 -97 22 -20 75 -22 90 -4 6 6 13 24 17
39 5 21 1 33 -19 52 -29 30 -52 33 -84 10z"/>
<path d="M1462 974 c-26 -18 -30 -74 -6 -98 18 -18 56 -21 85 -6 28 16 27 84
-3 104 -12 9 -29 16 -38 16 -9 0 -26 -7 -38 -16z"/>
<path d="M650 705 c-11 -13 -7 -15 25 -15 32 0 36 2 25 15 -7 8 -18 15 -25 15
-7 0 -18 -7 -25 -15z"/>
<path d="M860 706 c-27 -33 18 -72 48 -42 13 13 14 20 6 34 -15 23 -38 26 -54
8z"/>
<path d="M1120 705 c-11 -13 -7 -15 25 -15 32 0 36 2 25 15 -7 8 -18 15 -25
15 -7 0 -18 -7 -25 -15z"/>
<path d="M1227 713 c-15 -14 -6 -23 23 -23 32 0 40 14 14 24 -20 8 -29 8 -37
-1z"/>
<path d="M1553 713 c-15 -6 -17 -49 -3 -58 20 -12 50 6 50 30 0 18 -21 40 -33
34 -1 0 -8 -3 -14 -6z"/>
</g>
</svg>
