<svg xmlns="http://www.w3.org/2000/svg" id="Layer_1" data-name="Layer 1" viewBox="0 0 1329.79 270.04">
  <defs>
    <style>.cls-1{fill:#03d9d9;}.cls-2{fill:#fff;}</style>
  </defs>
  <path class="cls-1"
        d="M315.32,782.43c-16.11-2.33-27.61-16.92-27.61-33.2V549.15c0-4.31-2.72-8.42-6.92-9.41a9.15,9.15,0,0,0-11.07,6.69,9,9,0,0,0-.27,2.18V730.46a52.22,52.22,0,0,1-52.21,52.21h-26.9c-73.35,0-134-58.75-135.21-131A132.51,132.51,0,0,1,98.72,550.85c25-22.84,58.18-34.64,92.05-34.64h4.72c16.37,0,31.06,11.57,33.4,27.77a32.64,32.64,0,0,1-32.25,37.43h-6.26c-40.43,0-73,33.11-69.86,73.42a68.14,68.14,0,0,0,67.82,62.64H196c4.32,0,8.44-2.73,9.44-6.94a9.19,9.19,0,0,0-6.72-11.11,9.48,9.48,0,0,0-2.18-.26h-6.78c-25.54,0-48-18.66-50.85-44a49.77,49.77,0,0,1,43.84-55.08,49.22,49.22,0,0,1,5.56-.32H193c6.35,0,12.1,4.76,12.38,11.11A11.64,11.64,0,0,1,194.24,623h-5c-12.56,0-24.09,8.34-26.73,20.62a26.5,26.5,0,0,0,25.82,32.29h7.09c16.29,0,30.9,11.51,33.22,27.63a32.47,32.47,0,0,1-32.08,37.22h-5.92c-53.75,0-97.08-44-93.39-97.63a91.42,91.42,0,0,1,91.08-85h7.75c4.41,0,8.6-2.79,9.61-7.08a9.35,9.35,0,0,0-6.84-11.32,9.18,9.18,0,0,0-2.22-.27h-8.3a110,110,0,0,0-110,110c0,.61,0,1.21,0,1.82,1,59.6,51.21,108.08,111.94,108.08h26.9a28.94,28.94,0,0,0,28.94-28.94h0V547.11a32.4,32.4,0,0,1,64.74,0V749.83c0,4.31,2.72,8.42,6.92,9.42a9.16,9.16,0,0,0,11.08-6.7,8.84,8.84,0,0,0,.27-2.17V549.66c0-16.27,11.5-30.87,27.61-33.2A32.46,32.46,0,0,1,394,548.52v201.3c0,4.32,2.73,8.42,6.93,9.41A9.15,9.15,0,0,0,412,752.54a9,9,0,0,0,.27-2.18V528.6c0-6.36,4.76-12.11,11.11-12.38a11.65,11.65,0,0,1,12.15,11.11c0,.17,0,.34,0,.51V749.22c0,16.27-11.5,30.87-27.61,33.19a32.44,32.44,0,0,1-36.85-27.33,31.81,31.81,0,0,1-.35-4.67V549.06c0-4.32-2.72-8.42-6.92-9.41a9.14,9.14,0,0,0-11.08,6.68,9,9,0,0,0-.27,2.19V750.38A32.43,32.43,0,0,1,320,782.77,31.57,31.57,0,0,1,315.32,782.43Z"
        transform="translate(-55.11 -516.1)"/>
  <circle class="cls-2" cx="134.83" cy="133.35" r="15.45"/>
  <path class="cls-2"
        d="M524.18,594.86A43.23,43.23,0,0,0,527.43,612a39.23,39.23,0,0,0,8.77,13,38,38,0,0,0,12.7,8.16,40.36,40.36,0,0,0,15,2.83,39.34,39.34,0,0,0,21-5.71,37.85,37.85,0,0,0,14.36-15.88h30.55a61.61,61.61,0,0,1-8.84,19,65.11,65.11,0,0,1-14.54,15,67.05,67.05,0,0,1-19.32,9.93,74.34,74.34,0,0,1-23.31,3.56,72.36,72.36,0,0,1-27.8-5.32,68.51,68.51,0,0,1-22-14.36,66.66,66.66,0,0,1-.5-94.27l.38-.38a68.11,68.11,0,0,1,22-14.41,72.56,72.56,0,0,1,28-5.27,73.4,73.4,0,0,1,23.25,3.56,67.82,67.82,0,0,1,19.26,9.87,63.34,63.34,0,0,1,14.54,15,64.51,64.51,0,0,1,9,19H599.26A37,37,0,0,0,585,559.59a39.61,39.61,0,0,0-21-5.71,40.75,40.75,0,0,0-15.16,2.83,37.57,37.57,0,0,0-12.63,8.15,39.64,39.64,0,0,0-8.71,12.94A42.87,42.87,0,0,0,524.18,594.86Z"
        transform="translate(-55.11 -516.1)"/>
  <path class="cls-2"
        d="M641,595a70,70,0,0,1,4.84-26.07,63.68,63.68,0,0,1,13.74-21.28A64.9,64.9,0,0,1,681,533.27,70.17,70.17,0,0,1,708.63,528a63.08,63.08,0,0,1,13.56,1.41,68,68,0,0,1,12.08,3.8,59.11,59.11,0,0,1,10.37,5.64,66.23,66.23,0,0,1,8.41,6.81l1.71-13.86h25.52V658H754.76l-1.71-13.86a61,61,0,0,1-8.59,6.86,64,64,0,0,1-10.37,5.59,67.22,67.22,0,0,1-12,3.8,63.08,63.08,0,0,1-13.56,1.41A70.74,70.74,0,0,1,681,656.63a63.39,63.39,0,0,1-21.29-14.3A64.85,64.85,0,0,1,646,621.05,69.21,69.21,0,0,1,641,595Zm29.81-.12A42.66,42.66,0,0,0,674,611.54a40,40,0,0,0,8.71,13.07,39.11,39.11,0,0,0,12.88,8.46,42.82,42.82,0,0,0,31.53,0A38.44,38.44,0,0,0,740,624.61a40.47,40.47,0,0,0,8.65-13,42.69,42.69,0,0,0,3.19-16.74,42.06,42.06,0,0,0-3.19-16.5,39.33,39.33,0,0,0-8.71-12.94,40.65,40.65,0,0,0-28.71-11.54,41.29,41.29,0,0,0-15.83,3,38.5,38.5,0,0,0-12.82,8.46,39.58,39.58,0,0,0-8.58,13,42.46,42.46,0,0,0-3.15,16.51Z"
        transform="translate(-55.11 -516.1)"/>
  <path class="cls-2"
        d="M890.77,557.93l-14.85.13a46.07,46.07,0,0,0-15.7,2.51,32,32,0,0,0-12,7.48,32.84,32.84,0,0,0-7.61,12.39A51.08,51.08,0,0,0,838,597.56V658H808.21V531.8h24.16l2.7,15.09A51.09,51.09,0,0,1,851.2,536.1q9.76-4.3,23.13-4.3h16.44Z"
        transform="translate(-55.11 -516.1)"/>
  <path class="cls-2"
        d="M1100.74,531.8l-45,126.24H1028.6l-28.71-81-28.34,81h-27L899.67,531.8h32l29.2,86.62h.37l27.84-85.76h22l28,85.76h.37l29.19-86.62Z"
        transform="translate(-55.11 -516.1)"/>
  <path class="cls-2"
        d="M1099.22,595a66.44,66.44,0,0,1,5.15-26.07,64.71,64.71,0,0,1,14.41-21.28,68.51,68.51,0,0,1,22-14.36,76.65,76.65,0,0,1,55.86,0,68.26,68.26,0,0,1,22.08,14.36,67.37,67.37,0,0,1,14.59,73.48,64.1,64.1,0,0,1-14.48,21.22,68.18,68.18,0,0,1-22.14,14.3,74.12,74.12,0,0,1-28.15,5.21,72.71,72.71,0,0,1-27.8-5.21,66.8,66.8,0,0,1-21.89-14.3A66.09,66.09,0,0,1,1099.22,595Zm29.81-.12a43.21,43.21,0,0,0,3.13,16.62,40.21,40.21,0,0,0,8.52,13,38.82,38.82,0,0,0,12.64,8.53,39.47,39.47,0,0,0,15.58,3.07,40,40,0,0,0,15.58-3,38.06,38.06,0,0,0,12.64-8.46,40,40,0,0,0,8.52-13.07,43.32,43.32,0,0,0,3.13-16.68,42.61,42.61,0,0,0-3.13-16.5A38.68,38.68,0,0,0,1184.42,557a41.32,41.32,0,0,0-31.1-.06,38.06,38.06,0,0,0-12.64,8.46,40.21,40.21,0,0,0-8.52,13,42.78,42.78,0,0,0-3.16,16.46Z"
        transform="translate(-55.11 -516.1)"/>
  <path class="cls-2"
        d="M1384.89,658h-30.06V590.68a57.1,57.1,0,0,0-2.21-17,29.72,29.72,0,0,0-6.26-11.4,23.29,23.29,0,0,0-9.87-6.39,41.09,41.09,0,0,0-13.06-2,35.53,35.53,0,0,0-14.42,2.89,33.47,33.47,0,0,0-11.35,8.09,37.07,37.07,0,0,0-7.42,12.39A45.38,45.38,0,0,0,1287.6,593v65h-29.81V531.8h24.29l2.21,12.76a65.6,65.6,0,0,1,8.83-6.44,72.51,72.51,0,0,1,10.49-5.28,69.2,69.2,0,0,1,11.72-3.56,60.74,60.74,0,0,1,12.39-1.28q14.71,0,25.52,4.11a44.78,44.78,0,0,1,17.85,12,49.51,49.51,0,0,1,10.42,19.5,94.81,94.81,0,0,1,3.38,26.44Z"
        transform="translate(-55.11 -516.1)"/>
  <path class="cls-2"
        d="M499.92,740.72a26,26,0,0,1,7.8-18.66,28.17,28.17,0,0,1,29.85-5.6,26.09,26.09,0,0,1,14.31,14,25.47,25.47,0,0,1,2.1,10.29,9.4,9.4,0,0,1-.05,1.06,7.07,7.07,0,0,1-.1.82H505.5a20.61,20.61,0,0,0,2.27,8.12,21.08,21.08,0,0,0,4.89,6.17,22.27,22.27,0,0,0,20.09,4.54,20.6,20.6,0,0,0,9.38-5.43,20.51,20.51,0,0,0,3.23-4.3h6.17a25.15,25.15,0,0,1-3.9,6.12,25.4,25.4,0,0,1-5.58,4.86,27.07,27.07,0,0,1-7,3.21,28.81,28.81,0,0,1-18.76-.88,26.9,26.9,0,0,1-8.57-5.63A26.15,26.15,0,0,1,502,751,25.78,25.78,0,0,1,499.92,740.72ZM527,719.25a21.86,21.86,0,0,0-8,1.43,21.06,21.06,0,0,0-6.54,4,21.1,21.1,0,0,0-6.94,13.53h42.6a21.27,21.27,0,0,0-6.86-13.56,20.88,20.88,0,0,0-6.46-4A21.44,21.44,0,0,0,527,719.25Z"
        transform="translate(-55.11 -516.1)"/>
  <path class="cls-2"
        d="M616.48,765.75H610.7V738.6q0-9.93-4.54-14.52t-13.08-4.59a18.49,18.49,0,0,0-7.16,1.39,18.07,18.07,0,0,0-5.9,3.9,18.38,18.38,0,0,0-4,6.07,20.1,20.1,0,0,0-1.48,7.85v27h-5.68v-50h4.84l.54,8.69a21.43,21.43,0,0,1,3.48-3.95,23.8,23.8,0,0,1,4.59-3.18,24.82,24.82,0,0,1,5.46-2.12,22.92,22.92,0,0,1,6-.77q11.36,0,17,5.92t5.68,18.17Z"
        transform="translate(-55.11 -516.1)"/>
  <path class="cls-2"
        d="M629.07,740.72a26.31,26.31,0,0,1,2-10.29,25.57,25.57,0,0,1,5.63-8.37,26.55,26.55,0,0,1,8.47-5.6,26.92,26.92,0,0,1,10.59-2.05,26.41,26.41,0,0,1,13,3.36,24.63,24.63,0,0,1,5.06,3.72,25,25,0,0,1,3.83,4.62l.59-10.37h4.89v43.54a37.15,37.15,0,0,1-.52,6.05,30.3,30.3,0,0,1-1.7,6.13,25.39,25.39,0,0,1-3.14,5.65,20.21,20.21,0,0,1-4.84,4.66,24,24,0,0,1-6.79,3.18,31,31,0,0,1-8.93,1.19,31.35,31.35,0,0,1-10.74-1.68,25.77,25.77,0,0,1-7.8-4.34,21.24,21.24,0,0,1-5-6,21.66,21.66,0,0,1-2.42-6.57h5.48a17.92,17.92,0,0,0,6.44,9.28,21.6,21.6,0,0,0,6,3.13,24.13,24.13,0,0,0,8,1.21,24.57,24.57,0,0,0,7.53-1,18,18,0,0,0,5.45-2.79,15.66,15.66,0,0,0,3.7-4,20.94,20.94,0,0,0,2.25-4.61,23.14,23.14,0,0,0,1.11-4.72,33.44,33.44,0,0,0,.3-4.24v-4.74a26.89,26.89,0,0,1-3.9,4.62,25.22,25.22,0,0,1-5.11,3.72,27.55,27.55,0,0,1-23.5,1.38,26,26,0,0,1-8.34-5.51,25.49,25.49,0,0,1-5.58-8.26A26,26,0,0,1,629.07,740.72Zm5.73,0a21.23,21.23,0,0,0,6.2,15.21,20.57,20.57,0,0,0,6.81,4.46,22.48,22.48,0,0,0,16.72,0,20.73,20.73,0,0,0,6.81-4.46,21.65,21.65,0,0,0,4.59-23.6,20.42,20.42,0,0,0-4.62-6.74,21.82,21.82,0,0,0-30.31,0,21.14,21.14,0,0,0-6.24,15.13Z"
        transform="translate(-55.11 -516.1)"/>
  <path class="cls-2"
        d="M700.7,700.24a3.83,3.83,0,0,1,1.24-2.84,4.33,4.33,0,0,1,3.15-1.21,4.39,4.39,0,0,1,3.14,1.21,3.83,3.83,0,0,1,1.26,2.84,3.78,3.78,0,0,1-1.26,2.89,4.54,4.54,0,0,1-3.18,1.16,4.3,4.3,0,0,1-3.11-1.19A3.82,3.82,0,0,1,700.7,700.24Zm1.48,15.5h5.73v50h-5.73Z"
        transform="translate(-55.11 -516.1)"/>
  <path class="cls-2"
        d="M775.79,765.75H770V738.6q0-9.93-4.55-14.52c-3-3.06-7.39-4.59-13.08-4.59a18.49,18.49,0,0,0-7.16,1.39,18.07,18.07,0,0,0-5.9,3.9,18.54,18.54,0,0,0-4,6.07,20.1,20.1,0,0,0-1.48,7.85v27h-5.68v-50H733l.54,8.69a21.8,21.8,0,0,1,3.48-3.95,23.8,23.8,0,0,1,4.59-3.18,24.82,24.82,0,0,1,5.46-2.12,22.92,22.92,0,0,1,6-.77q11.35,0,17,5.92t5.67,18.17Z"
        transform="translate(-55.11 -516.1)"/>
  <path class="cls-2"
        d="M788.63,740.72a25.84,25.84,0,0,1,7.8-18.66,26.89,26.89,0,0,1,8.56-5.6,28.67,28.67,0,0,1,21.28,0,26.47,26.47,0,0,1,8.59,5.6,26,26,0,0,1,5.72,8.37,25.47,25.47,0,0,1,2.1,10.29,9.37,9.37,0,0,1,0,1.06,5.4,5.4,0,0,1-.11.82H794.2a20.7,20.7,0,0,0,7.17,14.29,22.15,22.15,0,0,0,14.31,5.31,21.91,21.91,0,0,0,5.75-.74,21,21,0,0,0,5.11-2.12,20.44,20.44,0,0,0,4.27-3.31,20,20,0,0,0,3.24-4.3h6.16a24.38,24.38,0,0,1-3.9,6.12,25.58,25.58,0,0,1-5.57,4.86,27.07,27.07,0,0,1-7,3.21A28.89,28.89,0,0,1,805,765a26.86,26.86,0,0,1-8.56-5.63A26.2,26.2,0,0,1,790.7,751,25.77,25.77,0,0,1,788.63,740.72Zm27-21.47a22,22,0,0,0-8,1.43,21.06,21.06,0,0,0-6.54,4,21.62,21.62,0,0,0-4.67,6,21,21,0,0,0-2.26,7.53h42.6a21,21,0,0,0-13.33-17.53,21.43,21.43,0,0,0-7.8-1.43Z"
        transform="translate(-55.11 -516.1)"/>
  <path class="cls-2"
        d="M853.84,740.72a25.84,25.84,0,0,1,7.8-18.66,28.17,28.17,0,0,1,29.85-5.6,26.07,26.07,0,0,1,14.31,14,25.47,25.47,0,0,1,2.1,10.29,9.37,9.37,0,0,1,0,1.06,7.07,7.07,0,0,1-.1.82H859.42a20.64,20.64,0,0,0,7.16,14.29,21.68,21.68,0,0,0,6.67,3.92,21.44,21.44,0,0,0,7.64,1.39,21.91,21.91,0,0,0,5.75-.74A20,20,0,0,0,896,756a20.51,20.51,0,0,0,3.23-4.3h6.17a25.15,25.15,0,0,1-3.9,6.12,25.4,25.4,0,0,1-5.58,4.86,26.92,26.92,0,0,1-7,3.21,28.79,28.79,0,0,1-18.75-.88,26.9,26.9,0,0,1-8.57-5.63,26.36,26.36,0,0,1-5.73-8.39A25.85,25.85,0,0,1,853.84,740.72Zm27-21.47a22,22,0,0,0-7.94,1.43,21.06,21.06,0,0,0-6.54,4,21.1,21.1,0,0,0-6.94,13.53H902a21.27,21.27,0,0,0-6.86-13.56,20.92,20.92,0,0,0-6.47-4,21.44,21.44,0,0,0-7.8-1.4Z"
        transform="translate(-55.11 -516.1)"/>
  <path class="cls-2"
        d="M952.38,720.93H947.3a22.59,22.59,0,0,0-7.64,1.25A16,16,0,0,0,929.8,732a23.49,23.49,0,0,0-1.42,8.47v25.27h-5.67v-50h4.84l.59,9.63a19.66,19.66,0,0,1,3.14-3.85,18.41,18.41,0,0,1,4.27-3.06,22.49,22.49,0,0,1,5.3-2,25.85,25.85,0,0,1,6.25-.72h5.28Z"
        transform="translate(-55.11 -516.1)"/>
  <path class="cls-2"
        d="M962.74,700.24A3.85,3.85,0,0,1,964,697.4a4.7,4.7,0,0,1,6.29,0,3.83,3.83,0,0,1,1.26,2.84,3.78,3.78,0,0,1-1.26,2.89,4.54,4.54,0,0,1-3.18,1.16A4.28,4.28,0,0,1,964,703.1,3.8,3.8,0,0,1,962.74,700.24Zm1.49,15.5H970v50h-5.72Z"
        transform="translate(-55.11 -516.1)"/>
  <path class="cls-2"
        d="M1037.84,765.75h-5.78V738.6q0-9.93-4.54-14.52t-13.09-4.59a18.49,18.49,0,0,0-7.16,1.39,18.07,18.07,0,0,0-5.9,3.9,18.54,18.54,0,0,0-4,6.07,20.1,20.1,0,0,0-1.48,7.85v27H990.2v-50H995l.55,8.69a21.38,21.38,0,0,1,3.47-3.95,23.43,23.43,0,0,1,4.6-3.18,24.07,24.07,0,0,1,5.45-2.12,22.92,22.92,0,0,1,6-.77q11.37,0,17,5.92t5.68,18.17Z"
        transform="translate(-55.11 -516.1)"/>
  <path class="cls-2"
        d="M1050.42,740.72a26.31,26.31,0,0,1,2-10.29,25.54,25.54,0,0,1,5.62-8.37,26.82,26.82,0,0,1,19.06-7.65,26.41,26.41,0,0,1,13,3.36,25.08,25.08,0,0,1,8.88,8.34l.59-10.37h4.89v43.54a38.29,38.29,0,0,1-.51,6.05,30.32,30.32,0,0,1-1.71,6.13,25.39,25.39,0,0,1-3.14,5.65,20.17,20.17,0,0,1-4.83,4.66,24,24,0,0,1-6.79,3.18,34.68,34.68,0,0,1-19.67-.49,25.77,25.77,0,0,1-7.8-4.34,21.24,21.24,0,0,1-5-6,22,22,0,0,1-2.42-6.57h5.48a17.91,17.91,0,0,0,2.3,4.91,17.42,17.42,0,0,0,4.15,4.37,21.6,21.6,0,0,0,6,3.13,24.13,24.13,0,0,0,8,1.21,24.57,24.57,0,0,0,7.53-1,18.09,18.09,0,0,0,5.46-2.79,15.66,15.66,0,0,0,3.7-4,21.4,21.4,0,0,0,2.25-4.61,24.54,24.54,0,0,0,1.11-4.72,35.39,35.39,0,0,0,.29-4.24v-4.74a26.89,26.89,0,0,1-3.9,4.62,25.22,25.22,0,0,1-5.11,3.72,27.52,27.52,0,0,1-23.47,1.36,26,26,0,0,1-8.34-5.51,25.23,25.23,0,0,1-5.58-8.26A26.09,26.09,0,0,1,1050.42,740.72Zm5.73,0a21.26,21.26,0,0,0,6.24,15.21,20.51,20.51,0,0,0,6.82,4.46,22.45,22.45,0,0,0,16.71,0,20.73,20.73,0,0,0,6.81-4.46,21.65,21.65,0,0,0,4.59-23.6,20.65,20.65,0,0,0-4.61-6.74,22.06,22.06,0,0,0-6.84-4.47,21.75,21.75,0,0,0-23.48,4.47A21.14,21.14,0,0,0,1056.15,740.72Z"
        transform="translate(-55.11 -516.1)"/>
</svg>
